SplineFontDB: 3.2
FontName: Yukag
FullName: Yukag Regular
FamilyName: Yukag
Weight: Regular
Copyright: Copyright  2022
Version: 1.0
ItalicAngle: 0
UnderlinePosition: 150
UnderlineWidth: 100
Ascent: 800
Descent: 200
InvalidEm: 0
sfntRevision: 0x00010000
LayerCount: 2
Layer: 0 0 "Back" 1
Layer: 1 0 "Fore" 0
XUID: [1021 386 1071978211 9425322]
StyleMap: 0x0040
FSType: 4
OS2Version: 2
OS2_WeightWidthSlopeOnly: 0
OS2_UseTypoMetrics: 0
CreationTime: 1652782745
ModificationTime: 1708911741
PfmFamily: 81
TTFWeight: 400
TTFWidth: 5
LineGap: 0
VLineGap: 0
Panose: 0 0 4 0 0 0 0 0 0 0
OS2TypoAscent: 2000
OS2TypoAOffset: 0
OS2TypoDescent: 0
OS2TypoDOffset: 0
OS2TypoLinegap: 0
OS2WinAscent: 2000
OS2WinAOffset: 0
OS2WinDescent: 0
OS2WinDOffset: 0
HheadAscent: 2000
HheadAOffset: 0
HheadDescent: 0
HheadDOffset: 0
OS2SubXSize: 1000
OS2SubYSize: 1000
OS2SubXOff: 0
OS2SubYOff: 0
OS2SupXSize: 1000
OS2SupYSize: 1000
OS2SupXOff: 0
OS2SupYOff: 1000
OS2StrikeYSize: 100
OS2StrikeYPos: 400
OS2CapHeight: 2000
OS2XHeight: 2000
OS2Vendor: 'FSTR'
OS2CodePages: 200101ff.cdff0000
OS2UnicodeRanges: 00000001.00000000.00000000.00000000
DEI: 91125
LangName: 1033 "Copyright +rkDWBMgc 2022" "" "" "Yukag" "" "1.0" "" "FontStruct is a trademark of FontStruct.com" "https://fontstruct.com" "+rkDWBMgc" "+IBwA-Yukag+IB0A was built with FontStruct+AAoA" "https://fontstruct.com/fontstructions/show/2100110/yukag-1" "https://fontstruct.com/fontstructors/show/1983648/gimhyeonje" "FontStruct Non-Commercial License" "" "" "" "" "" "Five big quacking zephyrs jolt my wax bed"
Encoding: UnicodeBmp
UnicodeInterp: none
NameList: AGL For New Fonts
DisplaySize: -48
AntiAlias: 1
FitToEm: 0
WinInfo: 0 16 10
BeginChars: 65537 68

StartChar: .notdef
Encoding: 65536 -1 0
Width: 2038
GlyphClass: 1
Flags: W
LayerCount: 2
Fore
SplineSet
1469 50 m 1
 69 50 l 1
 769 981 l 1
 1469 50 l 1
50 69 m 1
 50 1931 l 1
 750 1000 l 1
 50 69 l 1
1488 69 m 1
 788 1000 l 1
 1488 1931 l 1
 1488 69 l 1
769 1019 m 1
 69 1950 l 1
 1469 1950 l 1
 769 1019 l 1
0 0 m 1
 1538 0 l 1
 1538 2000 l 1
 0 2000 l 1
 0 0 l 1
EndSplineSet
EndChar

StartChar: space
Encoding: 32 32 1
Width: 750
GlyphClass: 1
Flags: W
LayerCount: 2
Fore
SplineSet
450 700 m 0
 478 700 500 723 500 750 c 0
 500 778 478 800 450 800 c 0
 423 800 400 778 400 750 c 0
 400 723 423 700 450 700 c 0
EndSplineSet
EndChar

StartChar: exclam
Encoding: 33 33 2
Width: 357
VWidth: 285
GlyphClass: 1
Flags: HW
LayerCount: 2
Fore
SplineSet
0 0 m 1
 71.4287109375 0 l 1
 71.4287109375 428.571289062 l 1
 0 428.571289062 l 1
 0 0 l 1
142.857421875 0 m 1
 214.286132812 0 l 1
 214.286132812 428.571289062 l 1
 142.857421875 428.571289062 l 1
 142.857421875 0 l 1
EndSplineSet
EndChar

StartChar: comma
Encoding: 44 44 3
Width: 214
VWidth: 285
GlyphClass: 1
Flags: HW
LayerCount: 2
Fore
SplineSet
0 142.857421875 m 1
 71.4287109375 142.857421875 l 1
 71.4287109375 285.713867188 l 1
 0 285.713867188 l 1
 0 142.857421875 l 1
EndSplineSet
EndChar

StartChar: period
Encoding: 46 46 4
Width: 357
VWidth: 285
GlyphClass: 1
Flags: HW
LayerCount: 2
Fore
SplineSet
0 142.857421875 m 1
 71.4287109375 142.857421875 l 1
 71.4287109375 285.713867188 l 1
 0 285.713867188 l 1
 0 142.857421875 l 1
142.857421875 142.857421875 m 1
 214.286132812 142.857421875 l 1
 214.286132812 285.713867188 l 1
 142.857421875 285.713867188 l 1
 142.857421875 142.857421875 l 1
EndSplineSet
EndChar

StartChar: zero
Encoding: 48 48 5
Width: 499
VWidth: 285
GlyphClass: 1
Flags: HW
LayerCount: 2
Fore
SplineSet
285.713867188 71.4287109375 m 2
 142.857421875 71.4287109375 l 2
 103.428710938 71.4287109375 71.7138671875 103.428710938 71.4287109375 142.857421875 c 2
 71.4287109375 285.713867188 l 2
 71.7138671875 325.142578125 103.428710938 357.142578125 142.857421875 357.142578125 c 2
 285.713867188 357.142578125 l 2
 325.142578125 357.142578125 357.142578125 325.142578125 357.142578125 285.713867188 c 2
 357.142578125 142.857421875 l 2
 357.142578125 103.428710938 325.142578125 71.7138671875 285.713867188 71.4287109375 c 2
142.857421875 0 m 2
 285.713867188 0 l 2
 364.571289062 0 428.571289062 64 428.571289062 142.857421875 c 2
 428.571289062 285.713867188 l 2
 428.571289062 364.571289062 364.571289062 428.571289062 285.713867188 428.571289062 c 2
 142.857421875 428.571289062 l 2
 64 428.571289062 0 364.571289062 0 285.713867188 c 2
 0 142.857421875 l 2
 0 64 64 0 142.857421875 0 c 2
EndSplineSet
EndChar

StartChar: one
Encoding: 49 49 6
Width: 499
VWidth: 285
GlyphClass: 1
Flags: HW
LayerCount: 2
Fore
SplineSet
142.857421875 0 m 2
 285.713867188 0 l 2
 364.571289062 0 428.571289062 64 428.571289062 142.857421875 c 2
 428.571289062 285.713867188 l 2
 428.571289062 364.571289062 364.571289062 428.571289062 285.713867188 428.571289062 c 0
 206.857421875 428.571289062 142.857421875 364.571289062 142.857421875 285.713867188 c 0
 142.857421875 206.857421875 206.857421875 142.857421875 285.713867188 142.857421875 c 1
 285.713867188 214.286132812 l 1
 246.286132812 214.286132812 214.571289062 246.286132812 214.286132812 285.713867188 c 0
 214.571289062 325.142578125 246.286132812 357.142578125 285.713867188 357.142578125 c 0
 325.142578125 357.142578125 357.142578125 325.142578125 357.142578125 285.713867188 c 2
 357.142578125 142.857421875 l 2
 357.142578125 103.428710938 325.142578125 71.7138671875 285.713867188 71.4287109375 c 2
 142.857421875 71.4287109375 l 2
 103.428710938 71.4287109375 71.7138671875 103.428710938 71.4287109375 142.857421875 c 1
 142.857421875 285.713867188 l 1
 142.857421875 364.571289062 78.857421875 428.571289062 0 428.571289062 c 1
 0 357.142578125 l 1
 39.4287109375 357.142578125 71.4287109375 325.142578125 71.4287109375 285.713867188 c 1
 0 142.857421875 l 1
 0 64 64 0 142.857421875 0 c 2
EndSplineSet
EndChar

StartChar: two
Encoding: 50 50 7
Width: 499
VWidth: 285
GlyphClass: 1
Flags: HW
LayerCount: 2
Fore
SplineSet
142.857421875 0 m 2
 285.713867188 0 l 2
 364.571289062 0 428.571289062 64 428.571289062 142.857421875 c 2
 428.571289062 285.713867188 l 2
 428.571289062 364.571289062 364.571289062 428.571289062 285.713867188 428.571289062 c 1
 285.713867188 357.142578125 l 1
 325.142578125 357.142578125 357.142578125 325.142578125 357.142578125 285.713867188 c 2
 357.142578125 142.857421875 l 2
 357.142578125 103.428710938 325.142578125 71.7138671875 285.713867188 71.4287109375 c 2
 214.286132812 71.4287109375 l 1
 214.286132812 142.857421875 l 1
 285.713867188 285.713867188 l 1
 285.713867188 364.571289062 221.713867188 428.571289062 142.857421875 428.571289062 c 1
 142.857421875 357.142578125 l 1
 182.286132812 357.142578125 214.286132812 325.142578125 214.286132812 285.713867188 c 1
 142.857421875 142.857421875 l 1
 142.857421875 71.4287109375 l 1
 103.428710938 71.4287109375 71.7138671875 103.428710938 71.4287109375 142.857421875 c 1
 142.857421875 285.713867188 l 1
 142.857421875 364.571289062 78.857421875 428.571289062 0 428.571289062 c 1
 0 357.142578125 l 1
 39.4287109375 357.142578125 71.4287109375 325.142578125 71.4287109375 285.713867188 c 1
 0 142.857421875 l 1
 0 64 64 0 142.857421875 0 c 2
EndSplineSet
EndChar

StartChar: three
Encoding: 51 51 8
Width: 499
VWidth: 285
GlyphClass: 1
Flags: HW
LayerCount: 2
Fore
SplineSet
142.857421875 0 m 2
 285.713867188 0 l 1
 285.713867188 71.4287109375 l 1
 214.286132812 71.4287109375 l 1
 214.286132812 142.857421875 l 1
 285.713867188 285.713867188 l 1
 285.713867188 357.142578125 l 1
 325.142578125 357.142578125 357.142578125 325.142578125 357.142578125 285.713867188 c 1
 285.713867188 142.857421875 l 1
 285.713867188 64 349.713867188 0 428.571289062 0 c 1
 428.571289062 71.4287109375 l 1
 389.142578125 71.4287109375 357.428710938 103.428710938 357.142578125 142.857421875 c 1
 428.571289062 285.713867188 l 1
 428.571289062 364.571289062 364.571289062 428.571289062 285.713867188 428.571289062 c 2
 142.857421875 428.571289062 l 1
 142.857421875 357.142578125 l 1
 214.286132812 357.142578125 l 1
 214.286132812 285.713867188 l 1
 142.857421875 142.857421875 l 1
 142.857421875 71.4287109375 l 1
 103.428710938 71.4287109375 71.7138671875 103.428710938 71.4287109375 142.857421875 c 1
 142.857421875 285.713867188 l 1
 142.857421875 364.571289062 78.857421875 428.571289062 0 428.571289062 c 1
 0 357.142578125 l 1
 39.4287109375 357.142578125 71.4287109375 325.142578125 71.4287109375 285.713867188 c 1
 0 142.857421875 l 1
 0 64 64 0 142.857421875 0 c 2
EndSplineSet
EndChar

StartChar: four
Encoding: 52 52 9
Width: 499
VWidth: 285
GlyphClass: 1
Flags: HW
LayerCount: 2
Fore
SplineSet
142.857421875 0 m 2
 285.713867188 0 l 2
 364.571289062 0 428.571289062 64 428.571289062 142.857421875 c 2
 428.571289062 285.713867188 l 2
 428.571289062 364.571289062 364.571289062 428.571289062 285.713867188 428.571289062 c 0
 206.857421875 428.571289062 142.857421875 364.571289062 142.857421875 285.713867188 c 0
 142.857421875 206.857421875 206.857421875 142.857421875 285.713867188 142.857421875 c 1
 285.713867188 214.286132812 l 1
 246.286132812 214.286132812 214.571289062 246.286132812 214.286132812 285.713867188 c 0
 214.571289062 325.142578125 246.286132812 357.142578125 285.713867188 357.142578125 c 0
 325.142578125 357.142578125 357.142578125 325.142578125 357.142578125 285.713867188 c 2
 357.142578125 142.857421875 l 2
 357.142578125 103.428710938 325.142578125 71.7138671875 285.713867188 71.4287109375 c 2
 142.857421875 71.4287109375 l 2
 103.428710938 71.4287109375 71.7138671875 103.428710938 71.4287109375 142.857421875 c 1
 142.857421875 285.713867188 l 1
 71.4287109375 428.571289062 l 1
 71.7138671875 468 103.428710938 500 142.857421875 500 c 2
 285.713867188 500 l 2
 325.142578125 500 357.142578125 468 357.142578125 428.571289062 c 1
 428.571289062 428.571289062 l 1
 428.571289062 507.428710938 364.571289062 571.428710938 285.713867188 571.428710938 c 2
 142.857421875 571.428710938 l 2
 64 571.428710938 0 507.428710938 0 428.571289062 c 1
 71.4287109375 285.713867188 l 1
 0 142.857421875 l 1
 0 64 64 0 142.857421875 0 c 2
EndSplineSet
EndChar

StartChar: five
Encoding: 53 53 10
Width: 499
VWidth: 285
GlyphClass: 1
Flags: HW
LayerCount: 2
Fore
SplineSet
142.857421875 0 m 2
 285.713867188 0 l 2
 364.571289062 0 428.571289062 64 428.571289062 142.857421875 c 2
 428.571289062 285.713867188 l 2
 428.571289062 364.571289062 364.571289062 428.571289062 285.713867188 428.571289062 c 1
 285.713867188 357.142578125 l 1
 325.142578125 357.142578125 357.142578125 325.142578125 357.142578125 285.713867188 c 2
 357.142578125 142.857421875 l 2
 357.142578125 103.428710938 325.142578125 71.7138671875 285.713867188 71.4287109375 c 2
 214.286132812 71.4287109375 l 1
 214.286132812 142.857421875 l 1
 285.713867188 285.713867188 l 1
 285.713867188 364.571289062 221.713867188 428.571289062 142.857421875 428.571289062 c 1
 142.857421875 357.142578125 l 1
 182.286132812 357.142578125 214.286132812 325.142578125 214.286132812 285.713867188 c 1
 142.857421875 142.857421875 l 1
 142.857421875 71.4287109375 l 1
 103.428710938 71.4287109375 71.7138671875 103.428710938 71.4287109375 142.857421875 c 1
 142.857421875 285.713867188 l 1
 71.4287109375 428.571289062 l 1
 71.7138671875 468 103.428710938 500 142.857421875 500 c 2
 285.713867188 500 l 2
 325.142578125 500 357.142578125 468 357.142578125 428.571289062 c 1
 428.571289062 428.571289062 l 1
 428.571289062 507.428710938 364.571289062 571.428710938 285.713867188 571.428710938 c 2
 142.857421875 571.428710938 l 2
 64 571.428710938 0 507.428710938 0 428.571289062 c 1
 71.4287109375 285.713867188 l 1
 0 142.857421875 l 1
 0 64 64 0 142.857421875 0 c 2
EndSplineSet
EndChar

StartChar: six
Encoding: 54 54 11
Width: 499
VWidth: 285
GlyphClass: 1
Flags: HW
LayerCount: 2
Fore
SplineSet
142.857421875 0 m 2
 285.713867188 0 l 1
 285.713867188 71.4287109375 l 1
 214.286132812 71.4287109375 l 1
 214.286132812 142.857421875 l 1
 285.713867188 285.713867188 l 1
 285.713867188 357.142578125 l 1
 325.142578125 357.142578125 357.142578125 325.142578125 357.142578125 285.713867188 c 1
 285.713867188 142.857421875 l 1
 285.713867188 64 349.713867188 0 428.571289062 0 c 1
 428.571289062 71.4287109375 l 1
 389.142578125 71.4287109375 357.428710938 103.428710938 357.142578125 142.857421875 c 1
 428.571289062 285.713867188 l 1
 428.571289062 364.571289062 364.571289062 428.571289062 285.713867188 428.571289062 c 2
 142.857421875 428.571289062 l 1
 142.857421875 357.142578125 l 1
 214.286132812 357.142578125 l 1
 214.286132812 285.713867188 l 1
 142.857421875 142.857421875 l 1
 142.857421875 71.4287109375 l 1
 103.428710938 71.4287109375 71.7138671875 103.428710938 71.4287109375 142.857421875 c 1
 142.857421875 285.713867188 l 1
 71.4287109375 428.571289062 l 1
 71.7138671875 468 103.428710938 500 142.857421875 500 c 2
 285.713867188 500 l 2
 325.142578125 500 357.142578125 468 357.142578125 428.571289062 c 1
 428.571289062 428.571289062 l 1
 428.571289062 507.428710938 364.571289062 571.428710938 285.713867188 571.428710938 c 2
 142.857421875 571.428710938 l 2
 64 571.428710938 0 507.428710938 0 428.571289062 c 1
 71.4287109375 285.713867188 l 1
 0 142.857421875 l 1
 0 64 64 0 142.857421875 0 c 2
EndSplineSet
EndChar

StartChar: seven
Encoding: 55 55 12
Width: 499
VWidth: 285
GlyphClass: 1
Flags: HW
LayerCount: 2
Fore
SplineSet
142.857421875 0 m 2
 285.713867188 0 l 2
 364.571289062 0 428.571289062 64 428.571289062 142.857421875 c 2
 428.571289062 285.713867188 l 2
 428.571289062 364.571289062 364.571289062 428.571289062 285.713867188 428.571289062 c 0
 206.857421875 428.571289062 142.857421875 364.571289062 142.857421875 285.713867188 c 0
 142.857421875 206.857421875 206.857421875 142.857421875 285.713867188 142.857421875 c 1
 285.713867188 214.286132812 l 1
 246.286132812 214.286132812 214.571289062 246.286132812 214.286132812 285.713867188 c 0
 214.571289062 325.142578125 246.286132812 357.142578125 285.713867188 357.142578125 c 0
 325.142578125 357.142578125 357.142578125 325.142578125 357.142578125 285.713867188 c 2
 357.142578125 142.857421875 l 2
 357.142578125 103.428710938 325.142578125 71.7138671875 285.713867188 71.4287109375 c 2
 142.857421875 71.4287109375 l 2
 103.428710938 71.4287109375 71.7138671875 103.428710938 71.4287109375 142.857421875 c 1
 142.857421875 285.713867188 l 1
 71.4287109375 428.571289062 l 1
 71.7138671875 468 103.428710938 500 142.857421875 500 c 1
 285.713867188 428.571289062 l 1
 364.571289062 428.571289062 428.571289062 492.571289062 428.571289062 571.428710938 c 1
 357.142578125 571.428710938 l 1
 357.142578125 532 325.142578125 500.286132812 285.713867188 500 c 1
 142.857421875 571.428710938 l 1
 64 571.428710938 0 507.428710938 0 428.571289062 c 1
 71.4287109375 285.713867188 l 1
 0 142.857421875 l 1
 0 64 64 0 142.857421875 0 c 2
EndSplineSet
EndChar

StartChar: eight
Encoding: 56 56 13
Width: 499
VWidth: 285
GlyphClass: 1
Flags: HW
LayerCount: 2
Fore
SplineSet
142.857421875 0 m 2
 285.713867188 0 l 2
 364.571289062 0 428.571289062 64 428.571289062 142.857421875 c 2
 428.571289062 285.713867188 l 2
 428.571289062 364.571289062 364.571289062 428.571289062 285.713867188 428.571289062 c 1
 285.713867188 357.142578125 l 1
 325.142578125 357.142578125 357.142578125 325.142578125 357.142578125 285.713867188 c 2
 357.142578125 142.857421875 l 2
 357.142578125 103.428710938 325.142578125 71.7138671875 285.713867188 71.4287109375 c 2
 214.286132812 71.4287109375 l 1
 214.286132812 142.857421875 l 1
 285.713867188 285.713867188 l 1
 285.713867188 364.571289062 221.713867188 428.571289062 142.857421875 428.571289062 c 1
 142.857421875 357.142578125 l 1
 182.286132812 357.142578125 214.286132812 325.142578125 214.286132812 285.713867188 c 1
 142.857421875 142.857421875 l 1
 142.857421875 71.4287109375 l 1
 103.428710938 71.4287109375 71.7138671875 103.428710938 71.4287109375 142.857421875 c 1
 142.857421875 285.713867188 l 1
 71.4287109375 428.571289062 l 1
 71.7138671875 468 103.428710938 500 142.857421875 500 c 1
 285.713867188 428.571289062 l 1
 364.571289062 428.571289062 428.571289062 492.571289062 428.571289062 571.428710938 c 1
 357.142578125 571.428710938 l 1
 357.142578125 532 325.142578125 500.286132812 285.713867188 500 c 1
 142.857421875 571.428710938 l 1
 64 571.428710938 0 507.428710938 0 428.571289062 c 1
 71.4287109375 285.713867188 l 1
 0 142.857421875 l 1
 0 64 64 0 142.857421875 0 c 2
EndSplineSet
EndChar

StartChar: nine
Encoding: 57 57 14
Width: 499
VWidth: 285
GlyphClass: 1
Flags: HW
LayerCount: 2
Fore
SplineSet
142.857421875 0 m 2
 285.713867188 0 l 1
 285.713867188 71.4287109375 l 1
 214.286132812 71.4287109375 l 1
 214.286132812 142.857421875 l 1
 285.713867188 285.713867188 l 1
 285.713867188 357.142578125 l 1
 325.142578125 357.142578125 357.142578125 325.142578125 357.142578125 285.713867188 c 1
 285.713867188 142.857421875 l 1
 285.713867188 64 349.713867188 0 428.571289062 0 c 1
 428.571289062 71.4287109375 l 1
 389.142578125 71.4287109375 357.428710938 103.428710938 357.142578125 142.857421875 c 1
 428.571289062 285.713867188 l 1
 428.571289062 364.571289062 364.571289062 428.571289062 285.713867188 428.571289062 c 2
 142.857421875 428.571289062 l 1
 142.857421875 357.142578125 l 1
 214.286132812 357.142578125 l 1
 214.286132812 285.713867188 l 1
 142.857421875 142.857421875 l 1
 142.857421875 71.4287109375 l 1
 103.428710938 71.4287109375 71.7138671875 103.428710938 71.4287109375 142.857421875 c 1
 142.857421875 285.713867188 l 1
 71.4287109375 428.571289062 l 1
 71.7138671875 468 103.428710938 500 142.857421875 500 c 1
 285.713867188 428.571289062 l 1
 364.571289062 428.571289062 428.571289062 492.571289062 428.571289062 571.428710938 c 1
 357.142578125 571.428710938 l 1
 357.142578125 532 325.142578125 500.286132812 285.713867188 500 c 1
 142.857421875 571.428710938 l 1
 64 571.428710938 0 507.428710938 0 428.571289062 c 1
 71.4287109375 285.713867188 l 1
 0 142.857421875 l 1
 0 64 64 0 142.857421875 0 c 2
EndSplineSet
EndChar

StartChar: question
Encoding: 63 63 15
Width: 214
VWidth: 285
GlyphClass: 1
Flags: HW
LayerCount: 2
Fore
SplineSet
0 0 m 1
 71.4287109375 0 l 1
 71.4287109375 428.571289062 l 1
 0 428.571289062 l 1
 0 0 l 1
EndSplineSet
EndChar

StartChar: A
Encoding: 65 65 16
Width: 499
VWidth: 285
GlyphClass: 1
Flags: HW
LayerCount: 2
Fore
SplineSet
142.857421875 0 m 0
 221.713867188 0 285.713867188 64 285.713867188 142.857421875 c 0
 285.713867188 221.713867188 221.713867188 285.713867188 142.857421875 285.713867188 c 1
 142.857421875 214.286132812 l 1
 182.286132812 214.286132812 214.286132812 182.286132812 214.286132812 142.857421875 c 0
 214.286132812 103.428710938 182.286132812 71.7138671875 142.857421875 71.4287109375 c 0
 103.428710938 71.4287109375 71.7138671875 103.428710938 71.4287109375 142.857421875 c 2
 71.4287109375 285.713867188 l 2
 71.7138671875 325.142578125 103.428710938 357.142578125 142.857421875 357.142578125 c 2
 285.713867188 357.142578125 l 2
 325.142578125 357.142578125 357.142578125 325.142578125 357.142578125 285.713867188 c 2
 357.142578125 142.857421875 l 2
 357.142578125 103.428710938 325.142578125 71.7138671875 285.713867188 71.4287109375 c 1
 285.713867188 0 l 1
 364.571289062 0 428.571289062 64 428.571289062 142.857421875 c 2
 428.571289062 285.713867188 l 2
 428.571289062 364.571289062 364.571289062 428.571289062 285.713867188 428.571289062 c 2
 142.857421875 428.571289062 l 2
 64 428.571289062 0 364.571289062 0 285.713867188 c 2
 0 142.857421875 l 2
 0 64 64 0 142.857421875 0 c 0
EndSplineSet
EndChar

StartChar: B
Encoding: 66 66 17
Width: 499
VWidth: 285
GlyphClass: 1
Flags: HW
LayerCount: 2
Fore
SplineSet
142.857421875 0 m 0
 221.713867188 0 285.713867188 64 285.713867188 142.857421875 c 1
 214.286132812 285.713867188 l 1
 214.571289062 325.142578125 246.286132812 357.142578125 285.713867188 357.142578125 c 0
 325.142578125 357.142578125 357.142578125 325.142578125 357.142578125 285.713867188 c 2
 357.142578125 142.857421875 l 2
 357.142578125 103.428710938 325.142578125 71.7138671875 285.713867188 71.4287109375 c 1
 285.713867188 0 l 1
 364.571289062 0 428.571289062 64 428.571289062 142.857421875 c 2
 428.571289062 285.713867188 l 2
 428.571289062 364.571289062 364.571289062 428.571289062 285.713867188 428.571289062 c 0
 206.857421875 428.571289062 142.857421875 364.571289062 142.857421875 285.713867188 c 1
 214.286132812 142.857421875 l 1
 214.286132812 103.428710938 182.286132812 71.7138671875 142.857421875 71.4287109375 c 0
 103.428710938 71.4287109375 71.7138671875 103.428710938 71.4287109375 142.857421875 c 2
 71.4287109375 285.713867188 l 2
 71.7138671875 325.142578125 103.428710938 357.142578125 142.857421875 357.142578125 c 1
 142.857421875 428.571289062 l 1
 64 428.571289062 0 364.571289062 0 285.713867188 c 2
 0 142.857421875 l 2
 0 64 64 0 142.857421875 0 c 0
EndSplineSet
EndChar

StartChar: C
Encoding: 67 67 18
Width: 499
VWidth: 285
GlyphClass: 1
Flags: HW
LayerCount: 2
Fore
SplineSet
285.713867188 71.4287109375 m 1
 285.713867188 142.857421875 l 1
 214.286132812 285.713867188 l 1
 214.571289062 325.142578125 246.286132812 357.142578125 285.713867188 357.142578125 c 0
 325.142578125 357.142578125 357.142578125 325.142578125 357.142578125 285.713867188 c 2
 357.142578125 142.857421875 l 2
 357.142578125 103.428710938 325.142578125 71.7138671875 285.713867188 71.4287109375 c 1
142.857421875 0 m 2
 285.713867188 0 l 2
 364.571289062 0 428.571289062 64 428.571289062 142.857421875 c 2
 428.571289062 285.713867188 l 2
 428.571289062 364.571289062 364.571289062 428.571289062 285.713867188 428.571289062 c 0
 206.857421875 428.571289062 142.857421875 364.571289062 142.857421875 285.713867188 c 1
 214.286132812 142.857421875 l 1
 214.286132812 71.4287109375 l 1
 142.857421875 71.4287109375 l 2
 103.428710938 71.4287109375 71.7138671875 103.428710938 71.4287109375 142.857421875 c 2
 71.4287109375 428.571289062 l 2
 71.7138671875 468 103.428710938 500 142.857421875 500 c 2
 285.713867188 500 l 2
 325.142578125 500 357.142578125 468 357.142578125 428.571289062 c 1
 428.571289062 428.571289062 l 1
 428.571289062 507.428710938 364.571289062 571.428710938 285.713867188 571.428710938 c 2
 142.857421875 571.428710938 l 2
 64 571.428710938 0 507.428710938 0 428.571289062 c 2
 0 142.857421875 l 2
 0 64 64 0 142.857421875 0 c 2
EndSplineSet
EndChar

StartChar: D
Encoding: 68 68 19
Width: 499
VWidth: 285
GlyphClass: 1
Flags: HW
LayerCount: 2
Fore
SplineSet
142.857421875 0 m 2
 285.713867188 0 l 2
 364.571289062 0 428.571289062 64 428.571289062 142.857421875 c 2
 428.571289062 285.713867188 l 2
 428.571289062 364.571289062 364.571289062 428.571289062 285.713867188 428.571289062 c 0
 206.857421875 428.571289062 142.857421875 364.571289062 142.857421875 285.713867188 c 1
 214.286132812 142.857421875 l 1
 285.713867188 142.857421875 l 1
 214.286132812 285.713867188 l 1
 214.571289062 325.142578125 246.286132812 357.142578125 285.713867188 357.142578125 c 0
 325.142578125 357.142578125 357.142578125 325.142578125 357.142578125 285.713867188 c 2
 357.142578125 142.857421875 l 2
 357.142578125 103.428710938 325.142578125 71.7138671875 285.713867188 71.4287109375 c 2
 142.857421875 71.4287109375 l 2
 103.428710938 71.4287109375 71.7138671875 103.428710938 71.4287109375 142.857421875 c 2
 71.4287109375 285.713867188 l 2
 71.7138671875 325.142578125 103.428710938 357.142578125 142.857421875 357.142578125 c 1
 142.857421875 428.571289062 l 1
 64 428.571289062 0 364.571289062 0 285.713867188 c 2
 0 142.857421875 l 2
 0 64 64 0 142.857421875 0 c 2
EndSplineSet
EndChar

StartChar: E
Encoding: 69 69 20
Width: 499
VWidth: 285
GlyphClass: 1
Flags: HW
LayerCount: 2
Fore
SplineSet
214.286132812 71.4287109375 m 1
 142.857421875 71.4287109375 l 2
 103.428710938 71.4287109375 71.7138671875 103.428710938 71.4287109375 142.857421875 c 0
 71.7138671875 182.286132812 103.428710938 214.286132812 142.857421875 214.286132812 c 0
 182.286132812 214.286132812 214.286132812 182.286132812 214.286132812 142.857421875 c 2
 214.286132812 71.4287109375 l 1
142.857421875 0 m 2
 285.713867188 0 l 2
 364.571289062 0 428.571289062 64 428.571289062 142.857421875 c 2
 428.571289062 285.713867188 l 2
 428.571289062 364.571289062 364.571289062 428.571289062 285.713867188 428.571289062 c 2
 142.857421875 428.571289062 l 2
 64 428.571289062 0 364.571289062 0 285.713867188 c 1
 71.4287109375 285.713867188 l 1
 71.7138671875 325.142578125 103.428710938 357.142578125 142.857421875 357.142578125 c 2
 285.713867188 357.142578125 l 2
 325.142578125 357.142578125 357.142578125 325.142578125 357.142578125 285.713867188 c 2
 357.142578125 142.857421875 l 2
 357.142578125 103.428710938 325.142578125 71.7138671875 285.713867188 71.4287109375 c 1
 285.713867188 142.857421875 l 2
 285.713867188 221.713867188 221.713867188 285.713867188 142.857421875 285.713867188 c 0
 64 285.713867188 0 221.713867188 0 142.857421875 c 0
 0 64 64 0 142.857421875 0 c 2
EndSplineSet
EndChar

StartChar: F
Encoding: 70 70 21
Width: 499
VWidth: 285
GlyphClass: 1
Flags: HW
LayerCount: 2
Fore
SplineSet
142.857421875 0 m 0
 221.713867188 0 285.713867188 64 285.713867188 142.857421875 c 1
 214.286132812 285.713867188 l 1
 214.571289062 325.142578125 246.286132812 357.142578125 285.713867188 357.142578125 c 0
 325.142578125 357.142578125 357.142578125 325.142578125 357.142578125 285.713867188 c 2
 357.142578125 142.857421875 l 2
 357.142578125 103.428710938 325.142578125 71.7138671875 285.713867188 71.4287109375 c 1
 285.713867188 0 l 1
 364.571289062 0 428.571289062 64 428.571289062 142.857421875 c 2
 428.571289062 285.713867188 l 2
 428.571289062 364.571289062 364.571289062 428.571289062 285.713867188 428.571289062 c 0
 206.857421875 428.571289062 142.857421875 364.571289062 142.857421875 285.713867188 c 1
 214.286132812 142.857421875 l 1
 214.286132812 103.428710938 182.286132812 71.7138671875 142.857421875 71.4287109375 c 0
 103.428710938 71.4287109375 71.7138671875 103.428710938 71.4287109375 142.857421875 c 2
 71.4287109375 428.571289062 l 2
 71.7138671875 468 103.428710938 500 142.857421875 500 c 1
 285.713867188 428.571289062 l 1
 364.571289062 428.571289062 428.571289062 492.571289062 428.571289062 571.428710938 c 1
 357.142578125 571.428710938 l 1
 357.142578125 532 325.142578125 500.286132812 285.713867188 500 c 1
 142.857421875 571.428710938 l 5
 64 571.428710938 0 507.428710938 0 428.571289062 c 2
 0 142.857421875 l 2
 0 64 64 0 142.857421875 0 c 0
EndSplineSet
EndChar

StartChar: G
Encoding: 71 71 22
Width: 499
VWidth: 285
GlyphClass: 1
Flags: HW
LayerCount: 2
Fore
SplineSet
142.857421875 0 m 2
 285.713867188 0 l 2
 364.571289062 0 428.571289062 64 428.571289062 142.857421875 c 2
 428.571289062 285.713867188 l 2
 428.571289062 364.571289062 364.571289062 428.571289062 285.713867188 428.571289062 c 1
 285.713867188 357.142578125 l 1
 325.142578125 357.142578125 357.142578125 325.142578125 357.142578125 285.713867188 c 2
 357.142578125 142.857421875 l 2
 357.142578125 103.428710938 325.142578125 71.7138671875 285.713867188 71.4287109375 c 2
 142.857421875 71.4287109375 l 2
 103.428710938 71.4287109375 71.7138671875 103.428710938 71.4287109375 142.857421875 c 2
 71.4287109375 285.713867188 l 2
 71.7138671875 325.142578125 103.428710938 357.142578125 142.857421875 357.142578125 c 0
 182.286132812 357.142578125 214.286132812 325.142578125 214.286132812 285.713867188 c 1
 142.857421875 142.857421875 l 1
 214.286132812 142.857421875 l 1
 285.713867188 285.713867188 l 1
 285.713867188 364.571289062 221.713867188 428.571289062 142.857421875 428.571289062 c 0
 64 428.571289062 0 364.571289062 0 285.713867188 c 2
 0 142.857421875 l 2
 0 64 64 0 142.857421875 0 c 2
EndSplineSet
EndChar

StartChar: H
Encoding: 72 72 23
Width: 499
VWidth: 285
GlyphClass: 1
Flags: HW
LayerCount: 2
Fore
SplineSet
285.713867188 71.4287109375 m 1
 285.713867188 142.857421875 l 1
 214.286132812 285.713867188 l 1
 214.571289062 325.142578125 246.286132812 357.142578125 285.713867188 357.142578125 c 0
 325.142578125 357.142578125 357.142578125 325.142578125 357.142578125 285.713867188 c 2
 357.142578125 142.857421875 l 2
 357.142578125 103.428710938 325.142578125 71.7138671875 285.713867188 71.4287109375 c 1
142.857421875 0 m 2
 285.713867188 0 l 2
 364.571289062 0 428.571289062 64 428.571289062 142.857421875 c 2
 428.571289062 285.713867188 l 2
 428.571289062 364.571289062 364.571289062 428.571289062 285.713867188 428.571289062 c 0
 206.857421875 428.571289062 142.857421875 364.571289062 142.857421875 285.713867188 c 1
 214.286132812 142.857421875 l 1
 214.286132812 71.4287109375 l 1
 142.857421875 71.4287109375 l 2
 103.428710938 71.4287109375 71.7138671875 103.428710938 71.4287109375 142.857421875 c 2
 71.4287109375 428.571289062 l 2
 71.7138671875 468 103.428710938 500 142.857421875 500 c 1
 285.713867188 428.571289062 l 1
 364.571289062 428.571289062 428.571289062 492.571289062 428.571289062 571.428710938 c 1
 357.142578125 571.428710938 l 1
 357.142578125 532 325.142578125 500.286132812 285.713867188 500 c 1
 142.857421875 571.428710938 l 1
 64 571.428710938 0 507.428710938 0 428.571289062 c 2
 0 142.857421875 l 2
 0 64 64 0 142.857421875 0 c 2
EndSplineSet
EndChar

StartChar: I
Encoding: 73 73 24
Width: 499
VWidth: 285
GlyphClass: 1
Flags: HW
LayerCount: 2
Fore
SplineSet
142.857421875 214.286132812 m 0
 103.428710938 214.286132812 71.7138671875 246.286132812 71.4287109375 285.713867188 c 0
 71.7138671875 325.142578125 103.428710938 357.142578125 142.857421875 357.142578125 c 2
 214.286132812 357.142578125 l 1
 214.286132812 285.713867188 l 2
 214.286132812 246.286132812 182.286132812 214.571289062 142.857421875 214.286132812 c 0
142.857421875 0 m 2
 285.713867188 0 l 2
 364.571289062 0 428.571289062 64 428.571289062 142.857421875 c 2
 428.571289062 285.713867188 l 2
 428.571289062 364.571289062 364.571289062 428.571289062 285.713867188 428.571289062 c 2
 142.857421875 428.571289062 l 2
 64 428.571289062 0 364.571289062 0 285.713867188 c 0
 0 206.857421875 64 142.857421875 142.857421875 142.857421875 c 0
 221.713867188 142.857421875 285.713867188 206.857421875 285.713867188 285.713867188 c 2
 285.713867188 357.142578125 l 1
 325.142578125 357.142578125 357.142578125 325.142578125 357.142578125 285.713867188 c 2
 357.142578125 142.857421875 l 2
 357.142578125 103.428710938 325.142578125 71.7138671875 285.713867188 71.4287109375 c 2
 142.857421875 71.4287109375 l 2
 103.428710938 71.4287109375 71.7138671875 103.428710938 71.4287109375 142.857421875 c 1
 0 142.857421875 l 1
 0 64 64 0 142.857421875 0 c 2
EndSplineSet
EndChar

StartChar: J
Encoding: 74 74 25
Width: 499
VWidth: 285
GlyphClass: 1
Flags: HW
LayerCount: 2
Fore
SplineSet
285.713867188 71.4287109375 m 1
 285.713867188 142.857421875 l 1
 214.286132812 285.713867188 l 1
 214.571289062 325.142578125 246.286132812 357.142578125 285.713867188 357.142578125 c 0
 325.142578125 357.142578125 357.142578125 325.142578125 357.142578125 285.713867188 c 2
 357.142578125 142.857421875 l 2
 357.142578125 103.428710938 325.142578125 71.7138671875 285.713867188 71.4287109375 c 1
142.857421875 0 m 2
 285.713867188 0 l 2
 364.571289062 0 428.571289062 64 428.571289062 142.857421875 c 2
 428.571289062 285.713867188 l 2
 428.571289062 364.571289062 364.571289062 428.571289062 285.713867188 428.571289062 c 0
 206.857421875 428.571289062 142.857421875 364.571289062 142.857421875 285.713867188 c 1
 214.286132812 142.857421875 l 1
 214.286132812 71.4287109375 l 1
 142.857421875 71.4287109375 l 2
 103.428710938 71.4287109375 71.7138671875 103.428710938 71.4287109375 142.857421875 c 2
 71.4287109375 285.713867188 l 2
 71.7138671875 325.142578125 103.428710938 357.142578125 142.857421875 357.142578125 c 1
 142.857421875 428.571289062 l 1
 64 428.571289062 0 364.571289062 0 285.713867188 c 2
 0 142.857421875 l 2
 0 64 64 0 142.857421875 0 c 2
EndSplineSet
EndChar

StartChar: K
Encoding: 75 75 26
Width: 499
VWidth: 285
GlyphClass: 1
Flags: HW
LayerCount: 2
Fore
SplineSet
142.857421875 0 m 2
 285.713867188 0 l 2
 364.571289062 0 428.571289062 64 428.571289062 142.857421875 c 2
 428.571289062 428.571289062 l 2
 428.571289062 507.428710938 364.571289062 571.428710938 285.713867188 571.428710938 c 2
 142.857421875 571.428710938 l 2
 64 571.428710938 0 507.428710938 0 428.571289062 c 1
 71.4287109375 428.571289062 l 1
 71.7138671875 468 103.428710938 500 142.857421875 500 c 2
 285.713867188 500 l 2
 325.142578125 500 357.142578125 468 357.142578125 428.571289062 c 2
 357.142578125 142.857421875 l 2
 357.142578125 103.428710938 325.142578125 71.7138671875 285.713867188 71.4287109375 c 2
 142.857421875 71.4287109375 l 2
 103.428710938 71.4287109375 71.7138671875 103.428710938 71.4287109375 142.857421875 c 2
 71.4287109375 285.713867188 l 2
 71.7138671875 325.142578125 103.428710938 357.142578125 142.857421875 357.142578125 c 0
 182.286132812 357.142578125 214.286132812 325.142578125 214.286132812 285.713867188 c 1
 142.857421875 142.857421875 l 1
 214.286132812 142.857421875 l 1
 285.713867188 285.713867188 l 1
 285.713867188 364.571289062 221.713867188 428.571289062 142.857421875 428.571289062 c 0
 64 428.571289062 0 364.571289062 0 285.713867188 c 2
 0 142.857421875 l 2
 0 64 64 0 142.857421875 0 c 2
EndSplineSet
EndChar

StartChar: L
Encoding: 76 76 27
Width: 499
VWidth: 285
GlyphClass: 1
Flags: HW
LayerCount: 2
Fore
SplineSet
142.857421875 0 m 1
 142.857421875 71.4287109375 l 1
 103.428710938 71.4287109375 71.7138671875 103.428710938 71.4287109375 142.857421875 c 2
 71.4287109375 285.713867188 l 2
 71.7138671875 325.142578125 103.428710938 357.142578125 142.857421875 357.142578125 c 0
 182.286132812 357.142578125 214.286132812 325.142578125 214.286132812 285.713867188 c 1
 142.857421875 142.857421875 l 1
 142.857421875 64 206.857421875 0 285.713867188 0 c 0
 364.571289062 0 428.571289062 64 428.571289062 142.857421875 c 2
 428.571289062 428.571289062 l 2
 428.571289062 507.428710938 364.571289062 571.428710938 285.713867188 571.428710938 c 2
 142.857421875 571.428710938 l 2
 64 571.428710938 0 507.428710938 0 428.571289062 c 1
 71.4287109375 428.571289062 l 1
 71.7138671875 468 103.428710938 500 142.857421875 500 c 2
 285.713867188 500 l 2
 325.142578125 500 357.142578125 468 357.142578125 428.571289062 c 2
 357.142578125 142.857421875 l 2
 357.142578125 103.428710938 325.142578125 71.7138671875 285.713867188 71.4287109375 c 0
 246.286132812 71.4287109375 214.571289062 103.428710938 214.286132812 142.857421875 c 1
 285.713867188 285.713867188 l 1
 285.713867188 364.571289062 221.713867188 428.571289062 142.857421875 428.571289062 c 0
 64 428.571289062 0 364.571289062 0 285.713867188 c 2
 0 142.857421875 l 2
 0 64 64 0 142.857421875 0 c 1
EndSplineSet
EndChar

StartChar: M
Encoding: 77 77 28
Width: 499
VWidth: 285
GlyphClass: 1
Flags: HW
LayerCount: 2
Fore
SplineSet
142.857421875 0 m 2
 285.713867188 0 l 2
 364.571289062 0 428.571289062 64 428.571289062 142.857421875 c 2
 428.571289062 285.713867188 l 2
 428.571289062 364.571289062 364.571289062 428.571289062 285.713867188 428.571289062 c 0
 206.857421875 428.571289062 142.857421875 364.571289062 142.857421875 285.713867188 c 0
 142.857421875 206.857421875 206.857421875 142.857421875 285.713867188 142.857421875 c 1
 285.713867188 214.286132812 l 1
 246.286132812 214.286132812 214.571289062 246.286132812 214.286132812 285.713867188 c 0
 214.571289062 325.142578125 246.286132812 357.142578125 285.713867188 357.142578125 c 0
 325.142578125 357.142578125 357.142578125 325.142578125 357.142578125 285.713867188 c 2
 357.142578125 142.857421875 l 2
 357.142578125 103.428710938 325.142578125 71.7138671875 285.713867188 71.4287109375 c 2
 142.857421875 71.4287109375 l 2
 103.428710938 71.4287109375 71.7138671875 103.428710938 71.4287109375 142.857421875 c 2
 71.4287109375 285.713867188 l 2
 71.7138671875 325.142578125 103.428710938 357.142578125 142.857421875 357.142578125 c 1
 142.857421875 428.571289062 l 1
 64 428.571289062 0 364.571289062 0 285.713867188 c 2
 0 142.857421875 l 2
 0 64 64 0 142.857421875 0 c 2
EndSplineSet
EndChar

StartChar: N
Encoding: 78 78 29
Width: 499
VWidth: 285
GlyphClass: 1
Flags: HW
LayerCount: 2
Fore
SplineSet
142.857421875 0 m 1
 142.857421875 71.4287109375 l 1
 103.428710938 71.4287109375 71.7138671875 103.428710938 71.4287109375 142.857421875 c 2
 71.4287109375 285.713867188 l 2
 71.7138671875 325.142578125 103.428710938 357.142578125 142.857421875 357.142578125 c 0
 182.286132812 357.142578125 214.286132812 325.142578125 214.286132812 285.713867188 c 1
 142.857421875 142.857421875 l 1
 142.857421875 64 206.857421875 0 285.713867188 0 c 0
 364.571289062 0 428.571289062 64 428.571289062 142.857421875 c 2
 428.571289062 285.713867188 l 2
 428.571289062 364.571289062 364.571289062 428.571289062 285.713867188 428.571289062 c 1
 285.713867188 357.142578125 l 1
 325.142578125 357.142578125 357.142578125 325.142578125 357.142578125 285.713867188 c 2
 357.142578125 142.857421875 l 2
 357.142578125 103.428710938 325.142578125 71.7138671875 285.713867188 71.4287109375 c 0
 246.286132812 71.4287109375 214.571289062 103.428710938 214.286132812 142.857421875 c 1
 285.713867188 285.713867188 l 1
 285.713867188 364.571289062 221.713867188 428.571289062 142.857421875 428.571289062 c 0
 64 428.571289062 0 364.571289062 0 285.713867188 c 2
 0 142.857421875 l 2
 0 64 64 0 142.857421875 0 c 1
EndSplineSet
EndChar

StartChar: O
Encoding: 79 79 30
Width: 499
VWidth: 285
GlyphClass: 1
Flags: HW
LayerCount: 2
Fore
SplineSet
285.713867188 71.4287109375 m 2
 214.286132812 71.4287109375 l 1
 214.286132812 142.857421875 l 2
 214.571289062 182.286132812 246.286132812 214.286132812 285.713867188 214.286132812 c 0
 325.142578125 214.286132812 357.142578125 182.286132812 357.142578125 142.857421875 c 0
 357.142578125 103.428710938 325.142578125 71.7138671875 285.713867188 71.4287109375 c 2
142.857421875 0 m 2
 285.713867188 0 l 2
 364.571289062 0 428.571289062 64 428.571289062 142.857421875 c 0
 428.571289062 221.713867188 364.571289062 285.713867188 285.713867188 285.713867188 c 0
 206.857421875 285.713867188 142.857421875 221.713867188 142.857421875 142.857421875 c 2
 142.857421875 71.4287109375 l 1
 103.428710938 71.4287109375 71.7138671875 103.428710938 71.4287109375 142.857421875 c 2
 71.4287109375 285.713867188 l 2
 71.7138671875 325.142578125 103.428710938 357.142578125 142.857421875 357.142578125 c 2
 285.713867188 357.142578125 l 2
 325.142578125 357.142578125 357.142578125 325.142578125 357.142578125 285.713867188 c 1
 428.571289062 285.713867188 l 1
 428.571289062 364.571289062 364.571289062 428.571289062 285.713867188 428.571289062 c 2
 142.857421875 428.571289062 l 2
 64 428.571289062 0 364.571289062 0 285.713867188 c 2
 0 142.857421875 l 2
 0 64 64 0 142.857421875 0 c 2
EndSplineSet
EndChar

StartChar: P
Encoding: 80 80 31
Width: 499
VWidth: 285
GlyphClass: 1
Flags: HW
LayerCount: 2
Fore
SplineSet
142.857421875 0 m 0
 221.713867188 0 285.713867188 64 285.713867188 142.857421875 c 1
 214.286132812 285.713867188 l 1
 214.571289062 325.142578125 246.286132812 357.142578125 285.713867188 357.142578125 c 0
 325.142578125 357.142578125 357.142578125 325.142578125 357.142578125 285.713867188 c 2
 357.142578125 142.857421875 l 2
 357.142578125 103.428710938 325.142578125 71.7138671875 285.713867188 71.4287109375 c 1
 285.713867188 0 l 1
 364.571289062 0 428.571289062 64 428.571289062 142.857421875 c 2
 428.571289062 285.713867188 l 2
 428.571289062 364.571289062 364.571289062 428.571289062 285.713867188 428.571289062 c 0
 206.857421875 428.571289062 142.857421875 364.571289062 142.857421875 285.713867188 c 1
 214.286132812 142.857421875 l 1
 214.286132812 103.428710938 182.286132812 71.7138671875 142.857421875 71.4287109375 c 0
 103.428710938 71.4287109375 71.7138671875 103.428710938 71.4287109375 142.857421875 c 2
 71.4287109375 428.571289062 l 2
 71.7138671875 468 103.428710938 500 142.857421875 500 c 2
 285.713867188 500 l 2
 325.142578125 500 357.142578125 468 357.142578125 428.571289062 c 1
 428.571289062 428.571289062 l 1
 428.571289062 507.428710938 364.571289062 571.428710938 285.713867188 571.428710938 c 2
 142.857421875 571.428710938 l 2
 64 571.428710938 0 507.428710938 0 428.571289062 c 2
 0 142.857421875 l 2
 0 64 64 0 142.857421875 0 c 0
EndSplineSet
EndChar

StartChar: Q
Encoding: 81 81 32
Width: 499
VWidth: 285
GlyphClass: 1
Flags: HW
LayerCount: 2
Fore
SplineSet
142.857421875 0 m 2
 285.713867188 0 l 2
 364.571289062 0 428.571289062 64 428.571289062 142.857421875 c 2
 428.571289062 428.571289062 l 2
 428.571289062 507.428710938 364.571289062 571.428710938 285.713867188 571.428710938 c 1
 142.857421875 500 l 1
 103.428710938 500 71.7138671875 532 71.4287109375 571.428710938 c 1
 0 571.428710938 l 1
 0 492.571289062 64 428.571289062 142.857421875 428.571289062 c 1
 285.713867188 500 l 1
 325.142578125 500 357.142578125 468 357.142578125 428.571289062 c 2
 357.142578125 142.857421875 l 2
 357.142578125 103.428710938 325.142578125 71.7138671875 285.713867188 71.4287109375 c 2
 142.857421875 71.4287109375 l 2
 103.428710938 71.4287109375 71.7138671875 103.428710938 71.4287109375 142.857421875 c 2
 71.4287109375 285.713867188 l 2
 71.7138671875 325.142578125 103.428710938 357.142578125 142.857421875 357.142578125 c 0
 182.286132812 357.142578125 214.286132812 325.142578125 214.286132812 285.713867188 c 1
 142.857421875 142.857421875 l 1
 214.286132812 142.857421875 l 1
 285.713867188 285.713867188 l 1
 285.713867188 364.571289062 221.713867188 428.571289062 142.857421875 428.571289062 c 0
 64 428.571289062 0 364.571289062 0 285.713867188 c 2
 0 142.857421875 l 2
 0 64 64 0 142.857421875 0 c 2
EndSplineSet
EndChar

StartChar: R
Encoding: 82 82 33
Width: 499
VWidth: 285
GlyphClass: 1
Flags: HW
LayerCount: 2
Fore
SplineSet
142.857421875 0 m 1
 142.857421875 71.4287109375 l 1
 103.428710938 71.4287109375 71.7138671875 103.428710938 71.4287109375 142.857421875 c 2
 71.4287109375 285.713867188 l 2
 71.7138671875 325.142578125 103.428710938 357.142578125 142.857421875 357.142578125 c 0
 182.286132812 357.142578125 214.286132812 325.142578125 214.286132812 285.713867188 c 1
 142.857421875 142.857421875 l 1
 142.857421875 64 206.857421875 0 285.713867188 0 c 0
 364.571289062 0 428.571289062 64 428.571289062 142.857421875 c 2
 428.571289062 428.571289062 l 2
 428.571289062 507.428710938 364.571289062 571.428710938 285.713867188 571.428710938 c 1
 142.857421875 500 l 1
 103.428710938 500 71.7138671875 532 71.4287109375 571.428710938 c 1
 0 571.428710938 l 1
 0 492.571289062 64 428.571289062 142.857421875 428.571289062 c 1
 285.713867188 500 l 1
 325.142578125 500 357.142578125 468 357.142578125 428.571289062 c 2
 357.142578125 142.857421875 l 2
 357.142578125 103.428710938 325.142578125 71.7138671875 285.713867188 71.4287109375 c 0
 246.286132812 71.4287109375 214.571289062 103.428710938 214.286132812 142.857421875 c 1
 285.713867188 285.713867188 l 1
 285.713867188 364.571289062 221.713867188 428.571289062 142.857421875 428.571289062 c 0
 64 428.571289062 0 364.571289062 0 285.713867188 c 2
 0 142.857421875 l 2
 0 64 64 0 142.857421875 0 c 1
EndSplineSet
EndChar

StartChar: S
Encoding: 83 83 34
Width: 499
VWidth: 285
GlyphClass: 1
Flags: HW
LayerCount: 2
Fore
SplineSet
142.857421875 71.4287109375 m 1
 103.428710938 71.4287109375 71.7138671875 103.428710938 71.4287109375 142.857421875 c 2
 71.4287109375 285.713867188 l 2
 71.7138671875 325.142578125 103.428710938 357.142578125 142.857421875 357.142578125 c 0
 182.286132812 357.142578125 214.286132812 325.142578125 214.286132812 285.713867188 c 1
 142.857421875 142.857421875 l 1
 142.857421875 71.4287109375 l 1
142.857421875 0 m 2
 285.713867188 0 l 2
 364.571289062 0 428.571289062 64 428.571289062 142.857421875 c 2
 428.571289062 428.571289062 l 2
 428.571289062 507.428710938 364.571289062 571.428710938 285.713867188 571.428710938 c 2
 142.857421875 571.428710938 l 2
 64 571.428710938 0 507.428710938 0 428.571289062 c 1
 71.4287109375 428.571289062 l 1
 71.7138671875 468 103.428710938 500 142.857421875 500 c 2
 285.713867188 500 l 2
 325.142578125 500 357.142578125 468 357.142578125 428.571289062 c 2
 357.142578125 142.857421875 l 2
 357.142578125 103.428710938 325.142578125 71.7138671875 285.713867188 71.4287109375 c 2
 214.286132812 71.4287109375 l 1
 214.286132812 142.857421875 l 1
 285.713867188 285.713867188 l 1
 285.713867188 364.571289062 221.713867188 428.571289062 142.857421875 428.571289062 c 0
 64 428.571289062 0 364.571289062 0 285.713867188 c 2
 0 142.857421875 l 2
 0 64 64 0 142.857421875 0 c 2
EndSplineSet
EndChar

StartChar: T
Encoding: 84 84 35
Width: 499
VWidth: 285
GlyphClass: 1
Flags: HW
LayerCount: 2
Fore
SplineSet
142.857421875 0 m 2
 285.713867188 0 l 2
 364.571289062 0 428.571289062 64 428.571289062 142.857421875 c 2
 428.571289062 285.713867188 l 2
 428.571289062 364.571289062 364.571289062 428.571289062 285.713867188 428.571289062 c 0
 206.857421875 428.571289062 142.857421875 364.571289062 142.857421875 285.713867188 c 1
 214.286132812 142.857421875 l 1
 285.713867188 142.857421875 l 1
 214.286132812 285.713867188 l 1
 214.571289062 325.142578125 246.286132812 357.142578125 285.713867188 357.142578125 c 0
 325.142578125 357.142578125 357.142578125 325.142578125 357.142578125 285.713867188 c 2
 357.142578125 142.857421875 l 2
 357.142578125 103.428710938 325.142578125 71.7138671875 285.713867188 71.4287109375 c 2
 142.857421875 71.4287109375 l 2
 103.428710938 71.4287109375 71.7138671875 103.428710938 71.4287109375 142.857421875 c 2
 71.4287109375 428.571289062 l 2
 71.7138671875 468 103.428710938 500 142.857421875 500 c 2
 285.713867188 500 l 2
 325.142578125 500 357.142578125 468 357.142578125 428.571289062 c 1
 428.571289062 428.571289062 l 1
 428.571289062 507.428710938 364.571289062 571.428710938 285.713867188 571.428710938 c 2
 142.857421875 571.428710938 l 2
 64 571.428710938 0 507.428710938 0 428.571289062 c 2
 0 142.857421875 l 2
 0 64 64 0 142.857421875 0 c 2
EndSplineSet
EndChar

StartChar: U
Encoding: 85 85 36
Width: 499
VWidth: 285
GlyphClass: 1
Flags: HW
LayerCount: 2
Fore
SplineSet
285.713867188 214.286132812 m 0
 246.286132812 214.286132812 214.571289062 246.286132812 214.286132812 285.713867188 c 2
 214.286132812 357.142578125 l 1
 285.713867188 357.142578125 l 2
 325.142578125 357.142578125 357.142578125 325.142578125 357.142578125 285.713867188 c 0
 357.142578125 246.286132812 325.142578125 214.571289062 285.713867188 214.286132812 c 0
142.857421875 0 m 2
 285.713867188 0 l 2
 364.571289062 0 428.571289062 64 428.571289062 142.857421875 c 1
 357.142578125 142.857421875 l 1
 357.142578125 103.428710938 325.142578125 71.7138671875 285.713867188 71.4287109375 c 2
 142.857421875 71.4287109375 l 2
 103.428710938 71.4287109375 71.7138671875 103.428710938 71.4287109375 142.857421875 c 2
 71.4287109375 285.713867188 l 2
 71.7138671875 325.142578125 103.428710938 357.142578125 142.857421875 357.142578125 c 1
 142.857421875 285.713867188 l 2
 142.857421875 206.857421875 206.857421875 142.857421875 285.713867188 142.857421875 c 0
 364.571289062 142.857421875 428.571289062 206.857421875 428.571289062 285.713867188 c 0
 428.571289062 364.571289062 364.571289062 428.571289062 285.713867188 428.571289062 c 2
 142.857421875 428.571289062 l 2
 64 428.571289062 0 364.571289062 0 285.713867188 c 2
 0 142.857421875 l 2
 0 64 64 0 142.857421875 0 c 2
EndSplineSet
EndChar

StartChar: V
Encoding: 86 86 37
Width: 499
VWidth: 285
GlyphClass: 1
Flags: HW
LayerCount: 2
Fore
SplineSet
142.857421875 0 m 1
 142.857421875 71.4287109375 l 1
 103.428710938 71.4287109375 71.7138671875 103.428710938 71.4287109375 142.857421875 c 2
 71.4287109375 285.713867188 l 2
 71.7138671875 325.142578125 103.428710938 357.142578125 142.857421875 357.142578125 c 2
 285.713867188 357.142578125 l 2
 325.142578125 357.142578125 357.142578125 325.142578125 357.142578125 285.713867188 c 2
 357.142578125 142.857421875 l 2
 357.142578125 103.428710938 325.142578125 71.7138671875 285.713867188 71.4287109375 c 0
 246.286132812 71.4287109375 214.571289062 103.428710938 214.286132812 142.857421875 c 0
 214.571289062 182.286132812 246.286132812 214.286132812 285.713867188 214.286132812 c 1
 285.713867188 285.713867188 l 1
 206.857421875 285.713867188 142.857421875 221.713867188 142.857421875 142.857421875 c 0
 142.857421875 64 206.857421875 0 285.713867188 0 c 0
 364.571289062 0 428.571289062 64 428.571289062 142.857421875 c 2
 428.571289062 285.713867188 l 2
 428.571289062 364.571289062 364.571289062 428.571289062 285.713867188 428.571289062 c 2
 142.857421875 428.571289062 l 2
 64 428.571289062 0 364.571289062 0 285.713867188 c 2
 0 142.857421875 l 2
 0 64 64 0 142.857421875 0 c 1
EndSplineSet
EndChar

StartChar: W
Encoding: 87 87 38
Width: 499
VWidth: 285
GlyphClass: 1
Flags: HW
LayerCount: 2
Fore
SplineSet
142.857421875 0 m 2
 285.713867188 0 l 2
 364.571289062 0 428.571289062 64 428.571289062 142.857421875 c 2
 428.571289062 285.713867188 l 2
 428.571289062 364.571289062 364.571289062 428.571289062 285.713867188 428.571289062 c 1
 285.713867188 357.142578125 l 1
 325.142578125 357.142578125 357.142578125 325.142578125 357.142578125 285.713867188 c 2
 357.142578125 142.857421875 l 2
 357.142578125 103.428710938 325.142578125 71.7138671875 285.713867188 71.4287109375 c 2
 142.857421875 71.4287109375 l 2
 103.428710938 71.4287109375 71.7138671875 103.428710938 71.4287109375 142.857421875 c 2
 71.4287109375 285.713867188 l 2
 71.7138671875 325.142578125 103.428710938 357.142578125 142.857421875 357.142578125 c 0
 182.286132812 357.142578125 214.286132812 325.142578125 214.286132812 285.713867188 c 0
 214.286132812 246.286132812 182.286132812 214.571289062 142.857421875 214.286132812 c 1
 142.857421875 142.857421875 l 1
 221.713867188 142.857421875 285.713867188 206.857421875 285.713867188 285.713867188 c 0
 285.713867188 364.571289062 221.713867188 428.571289062 142.857421875 428.571289062 c 0
 64 428.571289062 0 364.571289062 0 285.713867188 c 2
 0 142.857421875 l 2
 0 64 64 0 142.857421875 0 c 2
EndSplineSet
EndChar

StartChar: X
Encoding: 88 88 39
Width: 499
VWidth: 285
GlyphClass: 1
Flags: HW
LayerCount: 2
Fore
SplineSet
142.857421875 71.4287109375 m 1
 103.428710938 71.4287109375 71.7138671875 103.428710938 71.4287109375 142.857421875 c 2
 71.4287109375 285.713867188 l 2
 71.7138671875 325.142578125 103.428710938 357.142578125 142.857421875 357.142578125 c 0
 182.286132812 357.142578125 214.286132812 325.142578125 214.286132812 285.713867188 c 1
 142.857421875 142.857421875 l 1
 142.857421875 71.4287109375 l 1
142.857421875 0 m 2
 285.713867188 0 l 2
 364.571289062 0 428.571289062 64 428.571289062 142.857421875 c 2
 428.571289062 428.571289062 l 2
 428.571289062 507.428710938 364.571289062 571.428710938 285.713867188 571.428710938 c 1
 142.857421875 500 l 1
 103.428710938 500 71.7138671875 532 71.4287109375 571.428710938 c 1
 0 571.428710938 l 1
 0 492.571289062 64 428.571289062 142.857421875 428.571289062 c 1
 285.713867188 500 l 1
 325.142578125 500 357.142578125 468 357.142578125 428.571289062 c 2
 357.142578125 142.857421875 l 2
 357.142578125 103.428710938 325.142578125 71.7138671875 285.713867188 71.4287109375 c 2
 214.286132812 71.4287109375 l 1
 214.286132812 142.857421875 l 1
 285.713867188 285.713867188 l 1
 285.713867188 364.571289062 221.713867188 428.571289062 142.857421875 428.571289062 c 0
 64 428.571289062 0 364.571289062 0 285.713867188 c 2
 0 142.857421875 l 2
 0 64 64 0 142.857421875 0 c 2
EndSplineSet
EndChar

StartChar: Y
Encoding: 89 89 40
Width: 499
VWidth: 285
GlyphClass: 1
Flags: HW
LayerCount: 2
Fore
SplineSet
142.857421875 0 m 2
 285.713867188 0 l 2
 364.571289062 0 428.571289062 64 428.571289062 142.857421875 c 2
 428.571289062 285.713867188 l 2
 428.571289062 364.571289062 364.571289062 428.571289062 285.713867188 428.571289062 c 0
 206.857421875 428.571289062 142.857421875 364.571289062 142.857421875 285.713867188 c 1
 214.286132812 142.857421875 l 1
 285.713867188 142.857421875 l 1
 214.286132812 285.713867188 l 1
 214.571289062 325.142578125 246.286132812 357.142578125 285.713867188 357.142578125 c 0
 325.142578125 357.142578125 357.142578125 325.142578125 357.142578125 285.713867188 c 2
 357.142578125 142.857421875 l 2
 357.142578125 103.428710938 325.142578125 71.7138671875 285.713867188 71.4287109375 c 2
 142.857421875 71.4287109375 l 2
 103.428710938 71.4287109375 71.7138671875 103.428710938 71.4287109375 142.857421875 c 2
 71.4287109375 428.571289062 l 2
 71.7138671875 468 103.428710938 500 142.857421875 500 c 1
 285.713867188 428.571289062 l 1
 364.571289062 428.571289062 428.571289062 492.571289062 428.571289062 571.428710938 c 1
 357.142578125 571.428710938 l 1
 357.142578125 532 325.142578125 500.286132812 285.713867188 500 c 1
 142.857421875 571.428710938 l 1
 64 571.428710938 0 507.428710938 0 428.571289062 c 2
 0 142.857421875 l 2
 0 64 64 0 142.857421875 0 c 2
EndSplineSet
EndChar

StartChar: Z
Encoding: 90 90 41
Width: 499
VWidth: 285
GlyphClass: 1
Flags: HW
LayerCount: 2
Fore
SplineSet
142.857421875 71.4287109375 m 1
 103.428710938 71.4287109375 71.7138671875 103.428710938 71.4287109375 142.857421875 c 2
 71.4287109375 285.713867188 l 2
 71.7138671875 325.142578125 103.428710938 357.142578125 142.857421875 357.142578125 c 0
 182.286132812 357.142578125 214.286132812 325.142578125 214.286132812 285.713867188 c 1
 142.857421875 142.857421875 l 1
 142.857421875 71.4287109375 l 1
142.857421875 0 m 2
 285.713867188 0 l 2
 364.571289062 0 428.571289062 64 428.571289062 142.857421875 c 2
 428.571289062 285.713867188 l 2
 428.571289062 364.571289062 364.571289062 428.571289062 285.713867188 428.571289062 c 1
 285.713867188 357.142578125 l 1
 325.142578125 357.142578125 357.142578125 325.142578125 357.142578125 285.713867188 c 2
 357.142578125 142.857421875 l 2
 357.142578125 103.428710938 325.142578125 71.7138671875 285.713867188 71.4287109375 c 2
 214.286132812 71.4287109375 l 1
 214.286132812 142.857421875 l 1
 285.713867188 285.713867188 l 1
 285.713867188 364.571289062 221.713867188 428.571289062 142.857421875 428.571289062 c 0
 64 428.571289062 0 364.571289062 0 285.713867188 c 2
 0 142.857421875 l 2
 0 64 64 0 142.857421875 0 c 2
EndSplineSet
EndChar

StartChar: a
Encoding: 97 97 42
Width: 499
VWidth: 285
GlyphClass: 1
Flags: HW
LayerCount: 2
Fore
SplineSet
142.857421875 0 m 0
 221.713867188 0 285.713867188 64 285.713867188 142.857421875 c 0
 285.713867188 221.713867188 221.713867188 285.713867188 142.857421875 285.713867188 c 1
 142.857421875 214.286132812 l 1
 182.286132812 214.286132812 214.286132812 182.286132812 214.286132812 142.857421875 c 0
 214.286132812 103.428710938 182.286132812 71.7138671875 142.857421875 71.4287109375 c 0
 103.428710938 71.4287109375 71.7138671875 103.428710938 71.4287109375 142.857421875 c 2
 71.4287109375 285.713867188 l 2
 71.7138671875 325.142578125 103.428710938 357.142578125 142.857421875 357.142578125 c 2
 285.713867188 357.142578125 l 2
 325.142578125 357.142578125 357.142578125 325.142578125 357.142578125 285.713867188 c 2
 357.142578125 142.857421875 l 2
 357.142578125 103.428710938 325.142578125 71.7138671875 285.713867188 71.4287109375 c 1
 285.713867188 0 l 1
 364.571289062 0 428.571289062 64 428.571289062 142.857421875 c 2
 428.571289062 285.713867188 l 2
 428.571289062 364.571289062 364.571289062 428.571289062 285.713867188 428.571289062 c 2
 142.857421875 428.571289062 l 2
 64 428.571289062 0 364.571289062 0 285.713867188 c 2
 0 142.857421875 l 2
 0 64 64 0 142.857421875 0 c 0
EndSplineSet
EndChar

StartChar: b
Encoding: 98 98 43
Width: 499
VWidth: 285
GlyphClass: 1
Flags: HW
LayerCount: 2
Fore
SplineSet
142.857421875 0 m 0
 221.713867188 0 285.713867188 64 285.713867188 142.857421875 c 1
 214.286132812 285.713867188 l 1
 214.571289062 325.142578125 246.286132812 357.142578125 285.713867188 357.142578125 c 0
 325.142578125 357.142578125 357.142578125 325.142578125 357.142578125 285.713867188 c 2
 357.142578125 142.857421875 l 2
 357.142578125 103.428710938 325.142578125 71.7138671875 285.713867188 71.4287109375 c 1
 285.713867188 0 l 1
 364.571289062 0 428.571289062 64 428.571289062 142.857421875 c 2
 428.571289062 285.713867188 l 2
 428.571289062 364.571289062 364.571289062 428.571289062 285.713867188 428.571289062 c 0
 206.857421875 428.571289062 142.857421875 364.571289062 142.857421875 285.713867188 c 1
 214.286132812 142.857421875 l 1
 214.286132812 103.428710938 182.286132812 71.7138671875 142.857421875 71.4287109375 c 0
 103.428710938 71.4287109375 71.7138671875 103.428710938 71.4287109375 142.857421875 c 2
 71.4287109375 285.713867188 l 2
 71.7138671875 325.142578125 103.428710938 357.142578125 142.857421875 357.142578125 c 1
 142.857421875 428.571289062 l 1
 64 428.571289062 0 364.571289062 0 285.713867188 c 2
 0 142.857421875 l 2
 0 64 64 0 142.857421875 0 c 0
EndSplineSet
EndChar

StartChar: c
Encoding: 99 99 44
Width: 499
VWidth: 285
GlyphClass: 1
Flags: HW
LayerCount: 2
Fore
SplineSet
285.713867188 71.4287109375 m 1
 285.713867188 142.857421875 l 1
 214.286132812 285.713867188 l 1
 214.571289062 325.142578125 246.286132812 357.142578125 285.713867188 357.142578125 c 0
 325.142578125 357.142578125 357.142578125 325.142578125 357.142578125 285.713867188 c 2
 357.142578125 142.857421875 l 2
 357.142578125 103.428710938 325.142578125 71.7138671875 285.713867188 71.4287109375 c 1
142.857421875 0 m 2
 285.713867188 0 l 2
 364.571289062 0 428.571289062 64 428.571289062 142.857421875 c 2
 428.571289062 285.713867188 l 2
 428.571289062 364.571289062 364.571289062 428.571289062 285.713867188 428.571289062 c 0
 206.857421875 428.571289062 142.857421875 364.571289062 142.857421875 285.713867188 c 1
 214.286132812 142.857421875 l 1
 214.286132812 71.4287109375 l 1
 142.857421875 71.4287109375 l 2
 103.428710938 71.4287109375 71.7138671875 103.428710938 71.4287109375 142.857421875 c 2
 71.4287109375 428.571289062 l 2
 71.7138671875 468 103.428710938 500 142.857421875 500 c 2
 285.713867188 500 l 2
 325.142578125 500 357.142578125 468 357.142578125 428.571289062 c 1
 428.571289062 428.571289062 l 1
 428.571289062 507.428710938 364.571289062 571.428710938 285.713867188 571.428710938 c 2
 142.857421875 571.428710938 l 2
 64 571.428710938 0 507.428710938 0 428.571289062 c 2
 0 142.857421875 l 2
 0 64 64 0 142.857421875 0 c 2
EndSplineSet
EndChar

StartChar: d
Encoding: 100 100 45
Width: 499
VWidth: 285
GlyphClass: 1
Flags: HW
LayerCount: 2
Fore
SplineSet
142.857421875 0 m 2
 285.713867188 0 l 2
 364.571289062 0 428.571289062 64 428.571289062 142.857421875 c 2
 428.571289062 285.713867188 l 2
 428.571289062 364.571289062 364.571289062 428.571289062 285.713867188 428.571289062 c 0
 206.857421875 428.571289062 142.857421875 364.571289062 142.857421875 285.713867188 c 1
 214.286132812 142.857421875 l 1
 285.713867188 142.857421875 l 1
 214.286132812 285.713867188 l 1
 214.571289062 325.142578125 246.286132812 357.142578125 285.713867188 357.142578125 c 0
 325.142578125 357.142578125 357.142578125 325.142578125 357.142578125 285.713867188 c 2
 357.142578125 142.857421875 l 2
 357.142578125 103.428710938 325.142578125 71.7138671875 285.713867188 71.4287109375 c 2
 142.857421875 71.4287109375 l 2
 103.428710938 71.4287109375 71.7138671875 103.428710938 71.4287109375 142.857421875 c 2
 71.4287109375 285.713867188 l 2
 71.7138671875 325.142578125 103.428710938 357.142578125 142.857421875 357.142578125 c 1
 142.857421875 428.571289062 l 1
 64 428.571289062 0 364.571289062 0 285.713867188 c 2
 0 142.857421875 l 2
 0 64 64 0 142.857421875 0 c 2
EndSplineSet
EndChar

StartChar: e
Encoding: 101 101 46
Width: 499
VWidth: 285
GlyphClass: 1
Flags: HW
LayerCount: 2
Fore
SplineSet
214.286132812 71.4287109375 m 1
 142.857421875 71.4287109375 l 2
 103.428710938 71.4287109375 71.7138671875 103.428710938 71.4287109375 142.857421875 c 0
 71.7138671875 182.286132812 103.428710938 214.286132812 142.857421875 214.286132812 c 0
 182.286132812 214.286132812 214.286132812 182.286132812 214.286132812 142.857421875 c 2
 214.286132812 71.4287109375 l 1
142.857421875 0 m 2
 285.713867188 0 l 2
 364.571289062 0 428.571289062 64 428.571289062 142.857421875 c 2
 428.571289062 285.713867188 l 2
 428.571289062 364.571289062 364.571289062 428.571289062 285.713867188 428.571289062 c 2
 142.857421875 428.571289062 l 2
 64 428.571289062 0 364.571289062 0 285.713867188 c 1
 71.4287109375 285.713867188 l 1
 71.7138671875 325.142578125 103.428710938 357.142578125 142.857421875 357.142578125 c 2
 285.713867188 357.142578125 l 2
 325.142578125 357.142578125 357.142578125 325.142578125 357.142578125 285.713867188 c 2
 357.142578125 142.857421875 l 2
 357.142578125 103.428710938 325.142578125 71.7138671875 285.713867188 71.4287109375 c 1
 285.713867188 142.857421875 l 2
 285.713867188 221.713867188 221.713867188 285.713867188 142.857421875 285.713867188 c 0
 64 285.713867188 0 221.713867188 0 142.857421875 c 0
 0 64 64 0 142.857421875 0 c 2
EndSplineSet
EndChar

StartChar: f
Encoding: 102 102 47
Width: 499
VWidth: 285
GlyphClass: 1
Flags: HW
LayerCount: 2
Fore
SplineSet
142.857421875 0 m 0
 221.713867188 0 285.713867188 64 285.713867188 142.857421875 c 1
 214.286132812 285.713867188 l 1
 214.571289062 325.142578125 246.286132812 357.142578125 285.713867188 357.142578125 c 0
 325.142578125 357.142578125 357.142578125 325.142578125 357.142578125 285.713867188 c 2
 357.142578125 142.857421875 l 2
 357.142578125 103.428710938 325.142578125 71.7138671875 285.713867188 71.4287109375 c 1
 285.713867188 0 l 1
 364.571289062 0 428.571289062 64 428.571289062 142.857421875 c 2
 428.571289062 285.713867188 l 2
 428.571289062 364.571289062 364.571289062 428.571289062 285.713867188 428.571289062 c 0
 206.857421875 428.571289062 142.857421875 364.571289062 142.857421875 285.713867188 c 1
 214.286132812 142.857421875 l 1
 214.286132812 103.428710938 182.286132812 71.7138671875 142.857421875 71.4287109375 c 0
 103.428710938 71.4287109375 71.7138671875 103.428710938 71.4287109375 142.857421875 c 2
 71.4287109375 428.571289062 l 2
 71.7138671875 468 103.428710938 500 142.857421875 500 c 1
 285.713867188 428.571289062 l 1
 364.571289062 428.571289062 428.571289062 492.571289062 428.571289062 571.428710938 c 1
 357.142578125 571.428710938 l 1
 357.142578125 532 325.142578125 500.286132812 285.713867188 500 c 1
 142.857421875 571.428710938 l 1
 64 571.428710938 0 507.428710938 0 428.571289062 c 2
 0 142.857421875 l 2
 0 64 64 0 142.857421875 0 c 0
EndSplineSet
EndChar

StartChar: g
Encoding: 103 103 48
Width: 499
VWidth: 285
GlyphClass: 1
Flags: HW
LayerCount: 2
Fore
SplineSet
142.857421875 0 m 2
 285.713867188 0 l 2
 364.571289062 0 428.571289062 64 428.571289062 142.857421875 c 2
 428.571289062 285.713867188 l 2
 428.571289062 364.571289062 364.571289062 428.571289062 285.713867188 428.571289062 c 1
 285.713867188 357.142578125 l 1
 325.142578125 357.142578125 357.142578125 325.142578125 357.142578125 285.713867188 c 2
 357.142578125 142.857421875 l 2
 357.142578125 103.428710938 325.142578125 71.7138671875 285.713867188 71.4287109375 c 2
 142.857421875 71.4287109375 l 2
 103.428710938 71.4287109375 71.7138671875 103.428710938 71.4287109375 142.857421875 c 2
 71.4287109375 285.713867188 l 2
 71.7138671875 325.142578125 103.428710938 357.142578125 142.857421875 357.142578125 c 0
 182.286132812 357.142578125 214.286132812 325.142578125 214.286132812 285.713867188 c 1
 142.857421875 142.857421875 l 1
 214.286132812 142.857421875 l 1
 285.713867188 285.713867188 l 1
 285.713867188 364.571289062 221.713867188 428.571289062 142.857421875 428.571289062 c 0
 64 428.571289062 0 364.571289062 0 285.713867188 c 2
 0 142.857421875 l 2
 0 64 64 0 142.857421875 0 c 2
EndSplineSet
EndChar

StartChar: h
Encoding: 104 104 49
Width: 499
VWidth: 285
GlyphClass: 1
Flags: HW
LayerCount: 2
Fore
SplineSet
285.713867188 71.4287109375 m 1
 285.713867188 142.857421875 l 1
 214.286132812 285.713867188 l 1
 214.571289062 325.142578125 246.286132812 357.142578125 285.713867188 357.142578125 c 0
 325.142578125 357.142578125 357.142578125 325.142578125 357.142578125 285.713867188 c 2
 357.142578125 142.857421875 l 2
 357.142578125 103.428710938 325.142578125 71.7138671875 285.713867188 71.4287109375 c 1
142.857421875 0 m 2
 285.713867188 0 l 2
 364.571289062 0 428.571289062 64 428.571289062 142.857421875 c 2
 428.571289062 285.713867188 l 2
 428.571289062 364.571289062 364.571289062 428.571289062 285.713867188 428.571289062 c 0
 206.857421875 428.571289062 142.857421875 364.571289062 142.857421875 285.713867188 c 1
 214.286132812 142.857421875 l 1
 214.286132812 71.4287109375 l 1
 142.857421875 71.4287109375 l 2
 103.428710938 71.4287109375 71.7138671875 103.428710938 71.4287109375 142.857421875 c 2
 71.4287109375 428.571289062 l 2
 71.7138671875 468 103.428710938 500 142.857421875 500 c 1
 285.713867188 428.571289062 l 1
 364.571289062 428.571289062 428.571289062 492.571289062 428.571289062 571.428710938 c 1
 357.142578125 571.428710938 l 1
 357.142578125 532 325.142578125 500.286132812 285.713867188 500 c 1
 142.857421875 571.428710938 l 1
 64 571.428710938 0 507.428710938 0 428.571289062 c 2
 0 142.857421875 l 2
 0 64 64 0 142.857421875 0 c 2
EndSplineSet
EndChar

StartChar: i
Encoding: 105 105 50
Width: 499
VWidth: 285
GlyphClass: 1
Flags: HW
LayerCount: 2
Fore
SplineSet
142.857421875 214.286132812 m 0
 103.428710938 214.286132812 71.7138671875 246.286132812 71.4287109375 285.713867188 c 0
 71.7138671875 325.142578125 103.428710938 357.142578125 142.857421875 357.142578125 c 2
 214.286132812 357.142578125 l 1
 214.286132812 285.713867188 l 2
 214.286132812 246.286132812 182.286132812 214.571289062 142.857421875 214.286132812 c 0
142.857421875 0 m 2
 285.713867188 0 l 2
 364.571289062 0 428.571289062 64 428.571289062 142.857421875 c 2
 428.571289062 285.713867188 l 2
 428.571289062 364.571289062 364.571289062 428.571289062 285.713867188 428.571289062 c 2
 142.857421875 428.571289062 l 2
 64 428.571289062 0 364.571289062 0 285.713867188 c 0
 0 206.857421875 64 142.857421875 142.857421875 142.857421875 c 0
 221.713867188 142.857421875 285.713867188 206.857421875 285.713867188 285.713867188 c 2
 285.713867188 357.142578125 l 1
 325.142578125 357.142578125 357.142578125 325.142578125 357.142578125 285.713867188 c 2
 357.142578125 142.857421875 l 2
 357.142578125 103.428710938 325.142578125 71.7138671875 285.713867188 71.4287109375 c 2
 142.857421875 71.4287109375 l 2
 103.428710938 71.4287109375 71.7138671875 103.428710938 71.4287109375 142.857421875 c 1
 0 142.857421875 l 1
 0 64 64 0 142.857421875 0 c 2
EndSplineSet
EndChar

StartChar: j
Encoding: 106 106 51
Width: 499
VWidth: 285
GlyphClass: 1
Flags: HW
LayerCount: 2
Fore
SplineSet
285.713867188 71.4287109375 m 1
 285.713867188 142.857421875 l 1
 214.286132812 285.713867188 l 1
 214.571289062 325.142578125 246.286132812 357.142578125 285.713867188 357.142578125 c 0
 325.142578125 357.142578125 357.142578125 325.142578125 357.142578125 285.713867188 c 2
 357.142578125 142.857421875 l 2
 357.142578125 103.428710938 325.142578125 71.7138671875 285.713867188 71.4287109375 c 1
142.857421875 0 m 2
 285.713867188 0 l 2
 364.571289062 0 428.571289062 64 428.571289062 142.857421875 c 2
 428.571289062 285.713867188 l 2
 428.571289062 364.571289062 364.571289062 428.571289062 285.713867188 428.571289062 c 0
 206.857421875 428.571289062 142.857421875 364.571289062 142.857421875 285.713867188 c 1
 214.286132812 142.857421875 l 1
 214.286132812 71.4287109375 l 1
 142.857421875 71.4287109375 l 2
 103.428710938 71.4287109375 71.7138671875 103.428710938 71.4287109375 142.857421875 c 2
 71.4287109375 285.713867188 l 2
 71.7138671875 325.142578125 103.428710938 357.142578125 142.857421875 357.142578125 c 1
 142.857421875 428.571289062 l 1
 64 428.571289062 0 364.571289062 0 285.713867188 c 2
 0 142.857421875 l 2
 0 64 64 0 142.857421875 0 c 2
EndSplineSet
EndChar

StartChar: k
Encoding: 107 107 52
Width: 499
VWidth: 285
GlyphClass: 1
Flags: HW
LayerCount: 2
Fore
SplineSet
142.857421875 0 m 2
 285.713867188 0 l 2
 364.571289062 0 428.571289062 64 428.571289062 142.857421875 c 2
 428.571289062 428.571289062 l 2
 428.571289062 507.428710938 364.571289062 571.428710938 285.713867188 571.428710938 c 2
 142.857421875 571.428710938 l 2
 64 571.428710938 0 507.428710938 0 428.571289062 c 1
 71.4287109375 428.571289062 l 1
 71.7138671875 468 103.428710938 500 142.857421875 500 c 2
 285.713867188 500 l 2
 325.142578125 500 357.142578125 468 357.142578125 428.571289062 c 2
 357.142578125 142.857421875 l 2
 357.142578125 103.428710938 325.142578125 71.7138671875 285.713867188 71.4287109375 c 2
 142.857421875 71.4287109375 l 2
 103.428710938 71.4287109375 71.7138671875 103.428710938 71.4287109375 142.857421875 c 2
 71.4287109375 285.713867188 l 2
 71.7138671875 325.142578125 103.428710938 357.142578125 142.857421875 357.142578125 c 0
 182.286132812 357.142578125 214.286132812 325.142578125 214.286132812 285.713867188 c 1
 142.857421875 142.857421875 l 1
 214.286132812 142.857421875 l 1
 285.713867188 285.713867188 l 1
 285.713867188 364.571289062 221.713867188 428.571289062 142.857421875 428.571289062 c 0
 64 428.571289062 0 364.571289062 0 285.713867188 c 2
 0 142.857421875 l 2
 0 64 64 0 142.857421875 0 c 2
EndSplineSet
EndChar

StartChar: l
Encoding: 108 108 53
Width: 499
VWidth: 285
GlyphClass: 1
Flags: HW
LayerCount: 2
Fore
SplineSet
142.857421875 0 m 1
 142.857421875 71.4287109375 l 1
 103.428710938 71.4287109375 71.7138671875 103.428710938 71.4287109375 142.857421875 c 2
 71.4287109375 285.713867188 l 2
 71.7138671875 325.142578125 103.428710938 357.142578125 142.857421875 357.142578125 c 0
 182.286132812 357.142578125 214.286132812 325.142578125 214.286132812 285.713867188 c 1
 142.857421875 142.857421875 l 1
 142.857421875 64 206.857421875 0 285.713867188 0 c 0
 364.571289062 0 428.571289062 64 428.571289062 142.857421875 c 2
 428.571289062 428.571289062 l 2
 428.571289062 507.428710938 364.571289062 571.428710938 285.713867188 571.428710938 c 2
 142.857421875 571.428710938 l 2
 64 571.428710938 0 507.428710938 0 428.571289062 c 1
 71.4287109375 428.571289062 l 1
 71.7138671875 468 103.428710938 500 142.857421875 500 c 2
 285.713867188 500 l 2
 325.142578125 500 357.142578125 468 357.142578125 428.571289062 c 2
 357.142578125 142.857421875 l 2
 357.142578125 103.428710938 325.142578125 71.7138671875 285.713867188 71.4287109375 c 0
 246.286132812 71.4287109375 214.571289062 103.428710938 214.286132812 142.857421875 c 1
 285.713867188 285.713867188 l 1
 285.713867188 364.571289062 221.713867188 428.571289062 142.857421875 428.571289062 c 0
 64 428.571289062 0 364.571289062 0 285.713867188 c 2
 0 142.857421875 l 2
 0 64 64 0 142.857421875 0 c 1
EndSplineSet
EndChar

StartChar: m
Encoding: 109 109 54
Width: 499
VWidth: 285
GlyphClass: 1
Flags: HW
LayerCount: 2
Fore
SplineSet
142.857421875 0 m 2
 285.713867188 0 l 2
 364.571289062 0 428.571289062 64 428.571289062 142.857421875 c 2
 428.571289062 285.713867188 l 2
 428.571289062 364.571289062 364.571289062 428.571289062 285.713867188 428.571289062 c 0
 206.857421875 428.571289062 142.857421875 364.571289062 142.857421875 285.713867188 c 0
 142.857421875 206.857421875 206.857421875 142.857421875 285.713867188 142.857421875 c 1
 285.713867188 214.286132812 l 1
 246.286132812 214.286132812 214.571289062 246.286132812 214.286132812 285.713867188 c 0
 214.571289062 325.142578125 246.286132812 357.142578125 285.713867188 357.142578125 c 0
 325.142578125 357.142578125 357.142578125 325.142578125 357.142578125 285.713867188 c 2
 357.142578125 142.857421875 l 2
 357.142578125 103.428710938 325.142578125 71.7138671875 285.713867188 71.4287109375 c 2
 142.857421875 71.4287109375 l 2
 103.428710938 71.4287109375 71.7138671875 103.428710938 71.4287109375 142.857421875 c 2
 71.4287109375 285.713867188 l 2
 71.7138671875 325.142578125 103.428710938 357.142578125 142.857421875 357.142578125 c 1
 142.857421875 428.571289062 l 1
 64 428.571289062 0 364.571289062 0 285.713867188 c 2
 0 142.857421875 l 2
 0 64 64 0 142.857421875 0 c 2
EndSplineSet
EndChar

StartChar: n
Encoding: 110 110 55
Width: 499
VWidth: 285
GlyphClass: 1
Flags: HW
LayerCount: 2
Fore
SplineSet
142.857421875 0 m 1
 142.857421875 71.4287109375 l 1
 103.428710938 71.4287109375 71.7138671875 103.428710938 71.4287109375 142.857421875 c 2
 71.4287109375 285.713867188 l 2
 71.7138671875 325.142578125 103.428710938 357.142578125 142.857421875 357.142578125 c 0
 182.286132812 357.142578125 214.286132812 325.142578125 214.286132812 285.713867188 c 1
 142.857421875 142.857421875 l 1
 142.857421875 64 206.857421875 0 285.713867188 0 c 0
 364.571289062 0 428.571289062 64 428.571289062 142.857421875 c 2
 428.571289062 285.713867188 l 2
 428.571289062 364.571289062 364.571289062 428.571289062 285.713867188 428.571289062 c 1
 285.713867188 357.142578125 l 1
 325.142578125 357.142578125 357.142578125 325.142578125 357.142578125 285.713867188 c 2
 357.142578125 142.857421875 l 2
 357.142578125 103.428710938 325.142578125 71.7138671875 285.713867188 71.4287109375 c 0
 246.286132812 71.4287109375 214.571289062 103.428710938 214.286132812 142.857421875 c 1
 285.713867188 285.713867188 l 1
 285.713867188 364.571289062 221.713867188 428.571289062 142.857421875 428.571289062 c 0
 64 428.571289062 0 364.571289062 0 285.713867188 c 2
 0 142.857421875 l 2
 0 64 64 0 142.857421875 0 c 1
EndSplineSet
EndChar

StartChar: o
Encoding: 111 111 56
Width: 499
VWidth: 285
GlyphClass: 1
Flags: HW
LayerCount: 2
Fore
SplineSet
285.713867188 71.4287109375 m 2
 214.286132812 71.4287109375 l 1
 214.286132812 142.857421875 l 2
 214.571289062 182.286132812 246.286132812 214.286132812 285.713867188 214.286132812 c 0
 325.142578125 214.286132812 357.142578125 182.286132812 357.142578125 142.857421875 c 0
 357.142578125 103.428710938 325.142578125 71.7138671875 285.713867188 71.4287109375 c 2
142.857421875 0 m 2
 285.713867188 0 l 2
 364.571289062 0 428.571289062 64 428.571289062 142.857421875 c 0
 428.571289062 221.713867188 364.571289062 285.713867188 285.713867188 285.713867188 c 0
 206.857421875 285.713867188 142.857421875 221.713867188 142.857421875 142.857421875 c 2
 142.857421875 71.4287109375 l 1
 103.428710938 71.4287109375 71.7138671875 103.428710938 71.4287109375 142.857421875 c 2
 71.4287109375 285.713867188 l 2
 71.7138671875 325.142578125 103.428710938 357.142578125 142.857421875 357.142578125 c 2
 285.713867188 357.142578125 l 2
 325.142578125 357.142578125 357.142578125 325.142578125 357.142578125 285.713867188 c 1
 428.571289062 285.713867188 l 1
 428.571289062 364.571289062 364.571289062 428.571289062 285.713867188 428.571289062 c 2
 142.857421875 428.571289062 l 2
 64 428.571289062 0 364.571289062 0 285.713867188 c 2
 0 142.857421875 l 2
 0 64 64 0 142.857421875 0 c 2
EndSplineSet
EndChar

StartChar: p
Encoding: 112 112 57
Width: 499
VWidth: 285
GlyphClass: 1
Flags: HW
LayerCount: 2
Fore
SplineSet
142.857421875 0 m 0
 221.713867188 0 285.713867188 64 285.713867188 142.857421875 c 1
 214.286132812 285.713867188 l 1
 214.571289062 325.142578125 246.286132812 357.142578125 285.713867188 357.142578125 c 0
 325.142578125 357.142578125 357.142578125 325.142578125 357.142578125 285.713867188 c 2
 357.142578125 142.857421875 l 2
 357.142578125 103.428710938 325.142578125 71.7138671875 285.713867188 71.4287109375 c 1
 285.713867188 0 l 1
 364.571289062 0 428.571289062 64 428.571289062 142.857421875 c 2
 428.571289062 285.713867188 l 2
 428.571289062 364.571289062 364.571289062 428.571289062 285.713867188 428.571289062 c 0
 206.857421875 428.571289062 142.857421875 364.571289062 142.857421875 285.713867188 c 1
 214.286132812 142.857421875 l 1
 214.286132812 103.428710938 182.286132812 71.7138671875 142.857421875 71.4287109375 c 0
 103.428710938 71.4287109375 71.7138671875 103.428710938 71.4287109375 142.857421875 c 2
 71.4287109375 428.571289062 l 2
 71.7138671875 468 103.428710938 500 142.857421875 500 c 2
 285.713867188 500 l 2
 325.142578125 500 357.142578125 468 357.142578125 428.571289062 c 1
 428.571289062 428.571289062 l 1
 428.571289062 507.428710938 364.571289062 571.428710938 285.713867188 571.428710938 c 2
 142.857421875 571.428710938 l 2
 64 571.428710938 0 507.428710938 0 428.571289062 c 2
 0 142.857421875 l 2
 0 64 64 0 142.857421875 0 c 0
EndSplineSet
EndChar

StartChar: q
Encoding: 113 113 58
Width: 499
VWidth: 285
GlyphClass: 1
Flags: HW
LayerCount: 2
Fore
SplineSet
142.857421875 0 m 2
 285.713867188 0 l 2
 364.571289062 0 428.571289062 64 428.571289062 142.857421875 c 2
 428.571289062 428.571289062 l 2
 428.571289062 507.428710938 364.571289062 571.428710938 285.713867188 571.428710938 c 1
 142.857421875 500 l 1
 103.428710938 500 71.7138671875 532 71.4287109375 571.428710938 c 1
 0 571.428710938 l 1
 0 492.571289062 64 428.571289062 142.857421875 428.571289062 c 1
 285.713867188 500 l 1
 325.142578125 500 357.142578125 468 357.142578125 428.571289062 c 2
 357.142578125 142.857421875 l 2
 357.142578125 103.428710938 325.142578125 71.7138671875 285.713867188 71.4287109375 c 2
 142.857421875 71.4287109375 l 2
 103.428710938 71.4287109375 71.7138671875 103.428710938 71.4287109375 142.857421875 c 2
 71.4287109375 285.713867188 l 2
 71.7138671875 325.142578125 103.428710938 357.142578125 142.857421875 357.142578125 c 0
 182.286132812 357.142578125 214.286132812 325.142578125 214.286132812 285.713867188 c 1
 142.857421875 142.857421875 l 1
 214.286132812 142.857421875 l 1
 285.713867188 285.713867188 l 1
 285.713867188 364.571289062 221.713867188 428.571289062 142.857421875 428.571289062 c 0
 64 428.571289062 0 364.571289062 0 285.713867188 c 2
 0 142.857421875 l 2
 0 64 64 0 142.857421875 0 c 2
EndSplineSet
EndChar

StartChar: r
Encoding: 114 114 59
Width: 499
VWidth: 285
GlyphClass: 1
Flags: HW
LayerCount: 2
Fore
SplineSet
142.857421875 0 m 1
 142.857421875 71.4287109375 l 1
 103.428710938 71.4287109375 71.7138671875 103.428710938 71.4287109375 142.857421875 c 2
 71.4287109375 285.713867188 l 2
 71.7138671875 325.142578125 103.428710938 357.142578125 142.857421875 357.142578125 c 0
 182.286132812 357.142578125 214.286132812 325.142578125 214.286132812 285.713867188 c 1
 142.857421875 142.857421875 l 1
 142.857421875 64 206.857421875 0 285.713867188 0 c 0
 364.571289062 0 428.571289062 64 428.571289062 142.857421875 c 2
 428.571289062 428.571289062 l 2
 428.571289062 507.428710938 364.571289062 571.428710938 285.713867188 571.428710938 c 1
 142.857421875 500 l 1
 103.428710938 500 71.7138671875 532 71.4287109375 571.428710938 c 1
 0 571.428710938 l 1
 0 492.571289062 64 428.571289062 142.857421875 428.571289062 c 1
 285.713867188 500 l 1
 325.142578125 500 357.142578125 468 357.142578125 428.571289062 c 2
 357.142578125 142.857421875 l 2
 357.142578125 103.428710938 325.142578125 71.7138671875 285.713867188 71.4287109375 c 0
 246.286132812 71.4287109375 214.571289062 103.428710938 214.286132812 142.857421875 c 1
 285.713867188 285.713867188 l 1
 285.713867188 364.571289062 221.713867188 428.571289062 142.857421875 428.571289062 c 0
 64 428.571289062 0 364.571289062 0 285.713867188 c 2
 0 142.857421875 l 2
 0 64 64 0 142.857421875 0 c 1
EndSplineSet
EndChar

StartChar: s
Encoding: 115 115 60
Width: 499
VWidth: 285
GlyphClass: 1
Flags: HW
LayerCount: 2
Fore
SplineSet
142.857421875 71.4287109375 m 1
 103.428710938 71.4287109375 71.7138671875 103.428710938 71.4287109375 142.857421875 c 2
 71.4287109375 285.713867188 l 2
 71.7138671875 325.142578125 103.428710938 357.142578125 142.857421875 357.142578125 c 0
 182.286132812 357.142578125 214.286132812 325.142578125 214.286132812 285.713867188 c 1
 142.857421875 142.857421875 l 1
 142.857421875 71.4287109375 l 1
142.857421875 0 m 2
 285.713867188 0 l 2
 364.571289062 0 428.571289062 64 428.571289062 142.857421875 c 2
 428.571289062 428.571289062 l 2
 428.571289062 507.428710938 364.571289062 571.428710938 285.713867188 571.428710938 c 2
 142.857421875 571.428710938 l 2
 64 571.428710938 0 507.428710938 0 428.571289062 c 1
 71.4287109375 428.571289062 l 1
 71.7138671875 468 103.428710938 500 142.857421875 500 c 2
 285.713867188 500 l 2
 325.142578125 500 357.142578125 468 357.142578125 428.571289062 c 2
 357.142578125 142.857421875 l 2
 357.142578125 103.428710938 325.142578125 71.7138671875 285.713867188 71.4287109375 c 2
 214.286132812 71.4287109375 l 1
 214.286132812 142.857421875 l 1
 285.713867188 285.713867188 l 1
 285.713867188 364.571289062 221.713867188 428.571289062 142.857421875 428.571289062 c 0
 64 428.571289062 0 364.571289062 0 285.713867188 c 2
 0 142.857421875 l 2
 0 64 64 0 142.857421875 0 c 2
EndSplineSet
EndChar

StartChar: t
Encoding: 116 116 61
Width: 499
VWidth: 285
GlyphClass: 1
Flags: HW
LayerCount: 2
Fore
SplineSet
142.857421875 0 m 2
 285.713867188 0 l 2
 364.571289062 0 428.571289062 64 428.571289062 142.857421875 c 2
 428.571289062 285.713867188 l 2
 428.571289062 364.571289062 364.571289062 428.571289062 285.713867188 428.571289062 c 0
 206.857421875 428.571289062 142.857421875 364.571289062 142.857421875 285.713867188 c 1
 214.286132812 142.857421875 l 1
 285.713867188 142.857421875 l 1
 214.286132812 285.713867188 l 1
 214.571289062 325.142578125 246.286132812 357.142578125 285.713867188 357.142578125 c 0
 325.142578125 357.142578125 357.142578125 325.142578125 357.142578125 285.713867188 c 2
 357.142578125 142.857421875 l 2
 357.142578125 103.428710938 325.142578125 71.7138671875 285.713867188 71.4287109375 c 2
 142.857421875 71.4287109375 l 2
 103.428710938 71.4287109375 71.7138671875 103.428710938 71.4287109375 142.857421875 c 2
 71.4287109375 428.571289062 l 2
 71.7138671875 468 103.428710938 500 142.857421875 500 c 2
 285.713867188 500 l 2
 325.142578125 500 357.142578125 468 357.142578125 428.571289062 c 1
 428.571289062 428.571289062 l 1
 428.571289062 507.428710938 364.571289062 571.428710938 285.713867188 571.428710938 c 2
 142.857421875 571.428710938 l 2
 64 571.428710938 0 507.428710938 0 428.571289062 c 2
 0 142.857421875 l 2
 0 64 64 0 142.857421875 0 c 2
EndSplineSet
EndChar

StartChar: u
Encoding: 117 117 62
Width: 499
VWidth: 285
GlyphClass: 1
Flags: HW
LayerCount: 2
Fore
SplineSet
285.713867188 214.286132812 m 0
 246.286132812 214.286132812 214.571289062 246.286132812 214.286132812 285.713867188 c 2
 214.286132812 357.142578125 l 1
 285.713867188 357.142578125 l 2
 325.142578125 357.142578125 357.142578125 325.142578125 357.142578125 285.713867188 c 0
 357.142578125 246.286132812 325.142578125 214.571289062 285.713867188 214.286132812 c 0
142.857421875 0 m 2
 285.713867188 0 l 2
 364.571289062 0 428.571289062 64 428.571289062 142.857421875 c 1
 357.142578125 142.857421875 l 1
 357.142578125 103.428710938 325.142578125 71.7138671875 285.713867188 71.4287109375 c 2
 142.857421875 71.4287109375 l 2
 103.428710938 71.4287109375 71.7138671875 103.428710938 71.4287109375 142.857421875 c 2
 71.4287109375 285.713867188 l 2
 71.7138671875 325.142578125 103.428710938 357.142578125 142.857421875 357.142578125 c 1
 142.857421875 285.713867188 l 2
 142.857421875 206.857421875 206.857421875 142.857421875 285.713867188 142.857421875 c 0
 364.571289062 142.857421875 428.571289062 206.857421875 428.571289062 285.713867188 c 0
 428.571289062 364.571289062 364.571289062 428.571289062 285.713867188 428.571289062 c 2
 142.857421875 428.571289062 l 2
 64 428.571289062 0 364.571289062 0 285.713867188 c 2
 0 142.857421875 l 2
 0 64 64 0 142.857421875 0 c 2
EndSplineSet
EndChar

StartChar: v
Encoding: 118 118 63
Width: 499
VWidth: 285
GlyphClass: 1
Flags: HW
LayerCount: 2
Fore
SplineSet
142.857421875 0 m 1
 142.857421875 71.4287109375 l 1
 103.428710938 71.4287109375 71.7138671875 103.428710938 71.4287109375 142.857421875 c 2
 71.4287109375 285.713867188 l 2
 71.7138671875 325.142578125 103.428710938 357.142578125 142.857421875 357.142578125 c 2
 285.713867188 357.142578125 l 2
 325.142578125 357.142578125 357.142578125 325.142578125 357.142578125 285.713867188 c 2
 357.142578125 142.857421875 l 2
 357.142578125 103.428710938 325.142578125 71.7138671875 285.713867188 71.4287109375 c 0
 246.286132812 71.4287109375 214.571289062 103.428710938 214.286132812 142.857421875 c 0
 214.571289062 182.286132812 246.286132812 214.286132812 285.713867188 214.286132812 c 1
 285.713867188 285.713867188 l 1
 206.857421875 285.713867188 142.857421875 221.713867188 142.857421875 142.857421875 c 0
 142.857421875 64 206.857421875 0 285.713867188 0 c 0
 364.571289062 0 428.571289062 64 428.571289062 142.857421875 c 2
 428.571289062 285.713867188 l 2
 428.571289062 364.571289062 364.571289062 428.571289062 285.713867188 428.571289062 c 2
 142.857421875 428.571289062 l 2
 64 428.571289062 0 364.571289062 0 285.713867188 c 2
 0 142.857421875 l 2
 0 64 64 0 142.857421875 0 c 1
EndSplineSet
EndChar

StartChar: w
Encoding: 119 119 64
Width: 499
VWidth: 285
GlyphClass: 1
Flags: HW
LayerCount: 2
Fore
SplineSet
142.857421875 0 m 2
 285.713867188 0 l 2
 364.571289062 0 428.571289062 64 428.571289062 142.857421875 c 2
 428.571289062 285.713867188 l 2
 428.571289062 364.571289062 364.571289062 428.571289062 285.713867188 428.571289062 c 1
 285.713867188 357.142578125 l 1
 325.142578125 357.142578125 357.142578125 325.142578125 357.142578125 285.713867188 c 2
 357.142578125 142.857421875 l 2
 357.142578125 103.428710938 325.142578125 71.7138671875 285.713867188 71.4287109375 c 2
 142.857421875 71.4287109375 l 2
 103.428710938 71.4287109375 71.7138671875 103.428710938 71.4287109375 142.857421875 c 2
 71.4287109375 285.713867188 l 2
 71.7138671875 325.142578125 103.428710938 357.142578125 142.857421875 357.142578125 c 0
 182.286132812 357.142578125 214.286132812 325.142578125 214.286132812 285.713867188 c 0
 214.286132812 246.286132812 182.286132812 214.571289062 142.857421875 214.286132812 c 1
 142.857421875 142.857421875 l 1
 221.713867188 142.857421875 285.713867188 206.857421875 285.713867188 285.713867188 c 0
 285.713867188 364.571289062 221.713867188 428.571289062 142.857421875 428.571289062 c 0
 64 428.571289062 0 364.571289062 0 285.713867188 c 2
 0 142.857421875 l 2
 0 64 64 0 142.857421875 0 c 2
EndSplineSet
EndChar

StartChar: x
Encoding: 120 120 65
Width: 499
VWidth: 285
GlyphClass: 1
Flags: HW
LayerCount: 2
Fore
SplineSet
142.857421875 71.4287109375 m 1
 103.428710938 71.4287109375 71.7138671875 103.428710938 71.4287109375 142.857421875 c 2
 71.4287109375 285.713867188 l 2
 71.7138671875 325.142578125 103.428710938 357.142578125 142.857421875 357.142578125 c 0
 182.286132812 357.142578125 214.286132812 325.142578125 214.286132812 285.713867188 c 1
 142.857421875 142.857421875 l 1
 142.857421875 71.4287109375 l 1
142.857421875 0 m 2
 285.713867188 0 l 2
 364.571289062 0 428.571289062 64 428.571289062 142.857421875 c 2
 428.571289062 428.571289062 l 2
 428.571289062 507.428710938 364.571289062 571.428710938 285.713867188 571.428710938 c 1
 142.857421875 500 l 1
 103.428710938 500 71.7138671875 532 71.4287109375 571.428710938 c 1
 0 571.428710938 l 1
 0 492.571289062 64 428.571289062 142.857421875 428.571289062 c 1
 285.713867188 500 l 1
 325.142578125 500 357.142578125 468 357.142578125 428.571289062 c 2
 357.142578125 142.857421875 l 2
 357.142578125 103.428710938 325.142578125 71.7138671875 285.713867188 71.4287109375 c 2
 214.286132812 71.4287109375 l 1
 214.286132812 142.857421875 l 1
 285.713867188 285.713867188 l 1
 285.713867188 364.571289062 221.713867188 428.571289062 142.857421875 428.571289062 c 0
 64 428.571289062 0 364.571289062 0 285.713867188 c 2
 0 142.857421875 l 2
 0 64 64 0 142.857421875 0 c 2
EndSplineSet
EndChar

StartChar: y
Encoding: 121 121 66
Width: 499
VWidth: 285
GlyphClass: 1
Flags: HW
LayerCount: 2
Fore
SplineSet
142.857421875 0 m 2
 285.713867188 0 l 2
 364.571289062 0 428.571289062 64 428.571289062 142.857421875 c 2
 428.571289062 285.713867188 l 2
 428.571289062 364.571289062 364.571289062 428.571289062 285.713867188 428.571289062 c 0
 206.857421875 428.571289062 142.857421875 364.571289062 142.857421875 285.713867188 c 1
 214.286132812 142.857421875 l 1
 285.713867188 142.857421875 l 1
 214.286132812 285.713867188 l 1
 214.571289062 325.142578125 246.286132812 357.142578125 285.713867188 357.142578125 c 0
 325.142578125 357.142578125 357.142578125 325.142578125 357.142578125 285.713867188 c 2
 357.142578125 142.857421875 l 2
 357.142578125 103.428710938 325.142578125 71.7138671875 285.713867188 71.4287109375 c 2
 142.857421875 71.4287109375 l 2
 103.428710938 71.4287109375 71.7138671875 103.428710938 71.4287109375 142.857421875 c 2
 71.4287109375 428.571289062 l 2
 71.7138671875 468 103.428710938 500 142.857421875 500 c 1
 285.713867188 428.571289062 l 1
 364.571289062 428.571289062 428.571289062 492.571289062 428.571289062 571.428710938 c 1
 357.142578125 571.428710938 l 1
 357.142578125 532 325.142578125 500.286132812 285.713867188 500 c 1
 142.857421875 571.428710938 l 1
 64 571.428710938 0 507.428710938 0 428.571289062 c 2
 0 142.857421875 l 2
 0 64 64 0 142.857421875 0 c 2
EndSplineSet
EndChar

StartChar: z
Encoding: 122 122 67
Width: 499
VWidth: 285
GlyphClass: 1
Flags: HW
LayerCount: 2
Fore
SplineSet
142.857421875 71.4287109375 m 1
 103.428710938 71.4287109375 71.7138671875 103.428710938 71.4287109375 142.857421875 c 2
 71.4287109375 285.713867188 l 2
 71.7138671875 325.142578125 103.428710938 357.142578125 142.857421875 357.142578125 c 0
 182.286132812 357.142578125 214.286132812 325.142578125 214.286132812 285.713867188 c 1
 142.857421875 142.857421875 l 1
 142.857421875 71.4287109375 l 1
142.857421875 0 m 2
 285.713867188 0 l 2
 364.571289062 0 428.571289062 64 428.571289062 142.857421875 c 2
 428.571289062 285.713867188 l 2
 428.571289062 364.571289062 364.571289062 428.571289062 285.713867188 428.571289062 c 1
 285.713867188 357.142578125 l 1
 325.142578125 357.142578125 357.142578125 325.142578125 357.142578125 285.713867188 c 2
 357.142578125 142.857421875 l 2
 357.142578125 103.428710938 325.142578125 71.7138671875 285.713867188 71.4287109375 c 2
 214.286132812 71.4287109375 l 1
 214.286132812 142.857421875 l 1
 285.713867188 285.713867188 l 1
 285.713867188 364.571289062 221.713867188 428.571289062 142.857421875 428.571289062 c 0
 64 428.571289062 0 364.571289062 0 285.713867188 c 2
 0 142.857421875 l 2
 0 64 64 0 142.857421875 0 c 2
EndSplineSet
EndChar
